<svg xmlns="http://www.w3.org/2000/svg" viewBox="0 0 933 521" width="933" height="521" role="img" aria-label="Recon 6">
  <path fill="#EBE4D7" fill-rule="evenodd" d="M597.00,397.50 L597.50,513.75 L631.50,513.50 L632.00,446.00 L638.75,451.75 L701.75,513.75 L737.00,513.25 L736.75,397.25 L702.75,397.50 L702.25,466.00 L632.25,397.25 Z M156.00,397.50 L156.00,490.75 L158.00,495.75 L168.50,513.50 L284.75,513.50 L274.50,484.75 L191.50,484.75 L190.50,484.00 L190.50,470.00 L191.50,469.00 L269.50,469.00 L269.75,441.50 L191.50,441.50 L190.50,440.50 L190.50,427.50 L191.50,426.25 L274.50,426.25 L284.75,397.25 Z M6.50,397.50 L7.00,513.75 L41.25,513.25 L41.25,477.75 L42.25,476.75 L65.00,477.25 L102.00,513.75 L147.25,513.75 L146.75,512.50 L111.00,477.75 L111.50,476.75 L118.50,476.75 L121.75,475.50 L138.00,459.50 L139.50,455.00 L139.50,420.75 L138.75,417.75 L136.50,414.50 L121.00,399.00 L116.25,397.25 Z M41.25,427.25 L42.00,426.25 L99.00,426.25 L105.50,432.50 L105.75,442.25 L104.25,445.00 L99.50,448.75 L42.00,448.75 L41.25,448.00 Z M443.75,414.50 L441.75,417.50 L440.75,421.50 L441.00,490.00 L442.75,495.25 L459.25,511.75 L465.50,513.75 L556.00,513.75 L563.25,511.25 L579.75,494.25 L581.25,489.25 L581.25,421.50 L580.25,417.75 L578.25,414.50 L562.50,399.00 L556.25,397.00 L466.00,397.00 L458.75,399.50 Z M476.50,432.00 L479.50,428.75 L483.25,426.25 L538.75,426.25 L541.25,427.50 L545.25,431.25 L547.00,434.75 L547.00,476.00 L545.50,479.50 L542.00,483.00 L539.00,484.75 L482.00,484.25 L477.50,480.50 L475.50,477.25 L475.50,434.00 Z M299.50,416.00 L297.50,421.50 L298.00,491.00 L300.25,495.25 L316.75,511.75 L323.00,513.75 L430.00,513.50 L415.75,484.75 L340.50,484.75 L338.50,484.00 L334.00,480.00 L332.00,476.00 L332.00,435.00 L333.25,432.00 L336.75,428.25 L340.00,426.25 L415.25,426.25 L430.00,397.75 L429.75,397.00 L323.00,397.00 L318.75,398.00 L315.75,399.75 Z M106.75,6.75 L168.00,78.50 L371.75,78.50 L405.00,111.25 L382.25,137.00 L172.50,137.00 L172.50,324.50 L252.25,324.50 L252.25,208.50 L249.00,204.75 L248.75,203.50 L277.25,203.25 L423.25,350.25 L530.75,350.25 L528.25,346.75 L478.50,295.75 L388.00,204.50 L388.25,203.25 L417.50,203.25 L425.00,200.75 L513.50,111.25 L509.75,106.50 L463.25,57.75 L415.25,9.00 L408.25,6.75 Z"/>
  <path fill="#F07430" fill-rule="evenodd" d="M813.50,399.00 L795.50,419.25 L793.25,425.00 L793.50,489.00 L795.75,494.00 L813.50,512.50 L817.75,514.00 L905.25,514.00 L910.00,512.25 L925.25,496.00 L926.50,492.25 L926.75,459.00 L925.00,453.50 L912.00,440.25 L907.75,438.50 L829.50,438.75 L827.75,437.25 L828.00,431.00 L832.75,425.50 L835.00,424.25 L903.00,424.25 L924.25,398.75 L925.00,397.00 L817.50,397.00 Z M828.00,465.50 L828.75,464.75 L887.50,464.75 L889.75,466.00 L893.25,470.25 L893.25,480.50 L891.00,484.00 L887.75,486.50 L834.00,486.50 L829.00,482.25 L827.75,480.00 Z M543.75,9.00 L491.00,61.75 L491.00,62.75 L538.00,110.50 L538.25,111.75 L435.75,214.50 L429.75,221.50 L551.00,345.25 L555.00,346.50 L725.50,346.50 L734.25,344.00 L778.25,299.50 L781.50,290.75 L781.50,184.50 L778.00,176.00 L741.25,139.00 L734.75,136.75 L535.75,136.75 L535.25,135.75 L592.00,78.50 L729.25,78.25 L792.25,6.75 L553.00,6.50 Z M539.00,216.25 L541.75,211.00 L545.00,207.75 L552.00,203.50 L683.00,203.50 L686.00,205.00 L691.75,209.75 L695.75,217.00 L695.50,264.00 L693.75,268.00 L686.50,275.25 L682.25,277.00 L552.00,277.00 L547.75,275.00 L540.25,267.00 L539.00,264.25 Z"/>
</svg>
