<svg xmlns="http://www.w3.org/2000/svg" width="1000" height="1000" viewBox="0 0 1000 1000"><rect width="1000" height="1000" fill="#07090B"/><radialGradient id="fade"><stop offset="0.45" stop-color="#fff" stop-opacity="1"/><stop offset="1" stop-color="#fff" stop-opacity="0"/></radialGradient><mask id="mk"><rect width="1000" height="1000" fill="url(#fade)"/></mask><g mask="url(#mk)" opacity="0.05"><path d="M -15.000,-25.981 L -30.000,0.000 L -60.000,0.000 L -75.000,-25.981 L -60.000,-51.962 L -30.000,-51.962 Z" fill="none" stroke="#9BE7FF" stroke-width="1.00"/><path d="M -15.000,25.981 L -30.000,51.962 L -60.000,51.962 L -75.000,25.981 L -60.000,0.000 L -30.000,0.000 Z" fill="none" stroke="#9BE7FF" stroke-width="1.00"/><path d="M -15.000,77.942 L -30.000,103.923 L -60.000,103.923 L -75.000,77.942 L -60.000,51.962 L -30.000,51.962 Z" fill="none" stroke="#9BE7FF" stroke-width="1.00"/><path d="M -15.000,129.904 L -30.000,155.885 L -60.000,155.885 L -75.000,129.904 L -60.000,103.923 L -30.000,103.923 Z" fill="none" stroke="#9BE7FF" stroke-width="1.00"/><path d="M -15.000,181.865 L -30.000,207.846 L -60.000,207.846 L -75.000,181.865 L -60.000,155.885 L -30.000,155.885 Z" fill="none" stroke="#9BE7FF" stroke-width="1.00"/><path d="M -15.000,233.827 L -30.000,259.808 L -60.000,259.808 L -75.000,233.827 L -60.000,207.846 L -30.000,207.846 Z" fill="none" stroke="#9BE7FF" stroke-width="1.00"/><path d="M -15.000,285.788 L -30.000,311.769 L -60.000,311.769 L -75.000,285.788 L -60.000,259.808 L -30.000,259.808 Z" fill="none" stroke="#9BE7FF" stroke-width="1.00"/><path d="M -15.000,337.750 L -30.000,363.731 L -60.000,363.731 L -75.000,337.750 L -60.000,311.769 L -30.000,311.769 Z" fill="none" stroke="#9BE7FF" stroke-width="1.00"/><path d="M -15.000,389.711 L -30.000,415.692 L -60.000,415.692 L -75.000,389.711 L -60.000,363.731 L -30.000,363.731 Z" fill="none" stroke="#9BE7FF" stroke-width="1.00"/><path d="M -15.000,441.673 L -30.000,467.654 L -60.000,467.654 L -75.000,441.673 L -60.000,415.692 L -30.000,415.692 Z" fill="none" stroke="#9BE7FF" stroke-width="1.00"/><path d="M -15.000,493.634 L -30.000,519.615 L -60.000,519.615 L -75.000,493.634 L -60.000,467.654 L -30.000,467.654 Z" fill="none" stroke="#9BE7FF" stroke-width="1.00"/><path d="M -15.000,545.596 L -30.000,571.577 L -60.000,571.577 L -75.000,545.596 L -60.000,519.615 L -30.000,519.615 Z" fill="none" stroke="#9BE7FF" stroke-width="1.00"/><path d="M -15.000,597.558 L -30.000,623.538 L -60.000,623.538 L -75.000,597.558 L -60.000,571.577 L -30.000,571.577 Z" fill="none" stroke="#9BE7FF" stroke-width="1.00"/><path d="M -15.000,649.519 L -30.000,675.500 L -60.000,675.500 L -75.000,649.519 L -60.000,623.538 L -30.000,623.538 Z" fill="none" stroke="#9BE7FF" stroke-width="1.00"/><path d="M -15.000,701.481 L -30.000,727.461 L -60.000,727.461 L -75.000,701.481 L -60.000,675.500 L -30.000,675.500 Z" fill="none" stroke="#9BE7FF" stroke-width="1.00"/><path d="M -15.000,753.442 L -30.000,779.423 L -60.000,779.423 L -75.000,753.442 L -60.000,727.461 L -30.000,727.461 Z" fill="none" stroke="#9BE7FF" stroke-width="1.00"/><path d="M -15.000,805.404 L -30.000,831.384 L -60.000,831.384 L -75.000,805.404 L -60.000,779.423 L -30.000,779.423 Z" fill="none" stroke="#9BE7FF" stroke-width="1.00"/><path d="M -15.000,857.365 L -30.000,883.346 L -60.000,883.346 L -75.000,857.365 L -60.000,831.384 L -30.000,831.384 Z" fill="none" stroke="#9BE7FF" stroke-width="1.00"/><path d="M -15.000,909.327 L -30.000,935.307 L -60.000,935.307 L -75.000,909.327 L -60.000,883.346 L -30.000,883.346 Z" fill="none" stroke="#9BE7FF" stroke-width="1.00"/><path d="M -15.000,961.288 L -30.000,987.269 L -60.000,987.269 L -75.000,961.288 L -60.000,935.307 L -30.000,935.307 Z" fill="none" stroke="#9BE7FF" stroke-width="1.00"/><path d="M -15.000,1013.250 L -30.000,1039.230 L -60.000,1039.230 L -75.000,1013.250 L -60.000,987.269 L -30.000,987.269 Z" fill="none" stroke="#9BE7FF" stroke-width="1.00"/><path d="M -15.000,1065.211 L -30.000,1091.192 L -60.000,1091.192 L -75.000,1065.211 L -60.000,1039.230 L -30.000,1039.230 Z" fill="none" stroke="#9BE7FF" stroke-width="1.00"/><path d="M 30.000,-51.962 L 15.000,-25.981 L -15.000,-25.981 L -30.000,-51.962 L -15.000,-77.942 L 15.000,-77.942 Z" fill="none" stroke="#9BE7FF" stroke-width="1.00"/><path d="M 30.000,0.000 L 15.000,25.981 L -15.000,25.981 L -30.000,0.000 L -15.000,-25.981 L 15.000,-25.981 Z" fill="none" stroke="#9BE7FF" stroke-width="1.00"/><path d="M 30.000,51.962 L 15.000,77.942 L -15.000,77.942 L -30.000,51.962 L -15.000,25.981 L 15.000,25.981 Z" fill="none" stroke="#9BE7FF" stroke-width="1.00"/><path d="M 30.000,103.923 L 15.000,129.904 L -15.000,129.904 L -30.000,103.923 L -15.000,77.942 L 15.000,77.942 Z" fill="none" stroke="#9BE7FF" stroke-width="1.00"/><path d="M 30.000,155.885 L 15.000,181.865 L -15.000,181.865 L -30.000,155.885 L -15.000,129.904 L 15.000,129.904 Z" fill="none" stroke="#9BE7FF" stroke-width="1.00"/><path d="M 30.000,207.846 L 15.000,233.827 L -15.000,233.827 L -30.000,207.846 L -15.000,181.865 L 15.000,181.865 Z" fill="none" stroke="#9BE7FF" stroke-width="1.00"/><path d="M 30.000,259.808 L 15.000,285.788 L -15.000,285.788 L -30.000,259.808 L -15.000,233.827 L 15.000,233.827 Z" fill="none" stroke="#9BE7FF" stroke-width="1.00"/><path d="M 30.000,311.769 L 15.000,337.750 L -15.000,337.750 L -30.000,311.769 L -15.000,285.788 L 15.000,285.788 Z" fill="none" stroke="#9BE7FF" stroke-width="1.00"/><path d="M 30.000,363.731 L 15.000,389.711 L -15.000,389.711 L -30.000,363.731 L -15.000,337.750 L 15.000,337.750 Z" fill="none" stroke="#9BE7FF" stroke-width="1.00"/><path d="M 30.000,415.692 L 15.000,441.673 L -15.000,441.673 L -30.000,415.692 L -15.000,389.711 L 15.000,389.711 Z" fill="none" stroke="#9BE7FF" stroke-width="1.00"/><path d="M 30.000,467.654 L 15.000,493.634 L -15.000,493.634 L -30.000,467.654 L -15.000,441.673 L 15.000,441.673 Z" fill="none" stroke="#9BE7FF" stroke-width="1.00"/><path d="M 30.000,519.615 L 15.000,545.596 L -15.000,545.596 L -30.000,519.615 L -15.000,493.634 L 15.000,493.634 Z" fill="none" stroke="#9BE7FF" stroke-width="1.00"/><path d="M 30.000,571.577 L 15.000,597.558 L -15.000,597.558 L -30.000,571.577 L -15.000,545.596 L 15.000,545.596 Z" fill="none" stroke="#9BE7FF" stroke-width="1.00"/><path d="M 30.000,623.538 L 15.000,649.519 L -15.000,649.519 L -30.000,623.538 L -15.000,597.558 L 15.000,597.558 Z" fill="none" stroke="#9BE7FF" stroke-width="1.00"/><path d="M 30.000,675.500 L 15.000,701.481 L -15.000,701.481 L -30.000,675.500 L -15.000,649.519 L 15.000,649.519 Z" fill="none" stroke="#9BE7FF" stroke-width="1.00"/><path d="M 30.000,727.461 L 15.000,753.442 L -15.000,753.442 L -30.000,727.461 L -15.000,701.481 L 15.000,701.481 Z" fill="none" stroke="#9BE7FF" stroke-width="1.00"/><path d="M 30.000,779.423 L 15.000,805.404 L -15.000,805.404 L -30.000,779.423 L -15.000,753.442 L 15.000,753.442 Z" fill="none" stroke="#9BE7FF" stroke-width="1.00"/><path d="M 30.000,831.384 L 15.000,857.365 L -15.000,857.365 L -30.000,831.384 L -15.000,805.404 L 15.000,805.404 Z" fill="none" stroke="#9BE7FF" stroke-width="1.00"/><path d="M 30.000,883.346 L 15.000,909.327 L -15.000,909.327 L -30.000,883.346 L -15.000,857.365 L 15.000,857.365 Z" fill="none" stroke="#9BE7FF" stroke-width="1.00"/><path d="M 30.000,935.307 L 15.000,961.288 L -15.000,961.288 L -30.000,935.307 L -15.000,909.327 L 15.000,909.327 Z" fill="none" stroke="#9BE7FF" stroke-width="1.00"/><path d="M 30.000,987.269 L 15.000,1013.250 L -15.000,1013.250 L -30.000,987.269 L -15.000,961.288 L 15.000,961.288 Z" fill="none" stroke="#9BE7FF" stroke-width="1.00"/><path d="M 30.000,1039.230 L 15.000,1065.211 L -15.000,1065.211 L -30.000,1039.230 L -15.000,1013.250 L 15.000,1013.250 Z" fill="none" stroke="#9BE7FF" stroke-width="1.00"/><path d="M 75.000,-25.981 L 60.000,0.000 L 30.000,0.000 L 15.000,-25.981 L 30.000,-51.962 L 60.000,-51.962 Z" fill="none" stroke="#9BE7FF" stroke-width="1.00"/><path d="M 75.000,25.981 L 60.000,51.962 L 30.000,51.962 L 15.000,25.981 L 30.000,0.000 L 60.000,0.000 Z" fill="none" stroke="#9BE7FF" stroke-width="1.00"/><path d="M 75.000,77.942 L 60.000,103.923 L 30.000,103.923 L 15.000,77.942 L 30.000,51.962 L 60.000,51.962 Z" fill="none" stroke="#9BE7FF" stroke-width="1.00"/><path d="M 75.000,129.904 L 60.000,155.885 L 30.000,155.885 L 15.000,129.904 L 30.000,103.923 L 60.000,103.923 Z" fill="none" stroke="#9BE7FF" stroke-width="1.00"/><path d="M 75.000,181.865 L 60.000,207.846 L 30.000,207.846 L 15.000,181.865 L 30.000,155.885 L 60.000,155.885 Z" fill="none" stroke="#9BE7FF" stroke-width="1.00"/><path d="M 75.000,233.827 L 60.000,259.808 L 30.000,259.808 L 15.000,233.827 L 30.000,207.846 L 60.000,207.846 Z" fill="none" stroke="#9BE7FF" stroke-width="1.00"/><path d="M 75.000,285.788 L 60.000,311.769 L 30.000,311.769 L 15.000,285.788 L 30.000,259.808 L 60.000,259.808 Z" fill="none" stroke="#9BE7FF" stroke-width="1.00"/><path d="M 75.000,337.750 L 60.000,363.731 L 30.000,363.731 L 15.000,337.750 L 30.000,311.769 L 60.000,311.769 Z" fill="none" stroke="#9BE7FF" stroke-width="1.00"/><path d="M 75.000,389.711 L 60.000,415.692 L 30.000,415.692 L 15.000,389.711 L 30.000,363.731 L 60.000,363.731 Z" fill="none" stroke="#9BE7FF" stroke-width="1.00"/><path d="M 75.000,441.673 L 60.000,467.654 L 30.000,467.654 L 15.000,441.673 L 30.000,415.692 L 60.000,415.692 Z" fill="none" stroke="#9BE7FF" stroke-width="1.00"/><path d="M 75.000,493.634 L 60.000,519.615 L 30.000,519.615 L 15.000,493.634 L 30.000,467.654 L 60.000,467.654 Z" fill="none" stroke="#9BE7FF" stroke-width="1.00"/><path d="M 75.000,545.596 L 60.000,571.577 L 30.000,571.577 L 15.000,545.596 L 30.000,519.615 L 60.000,519.615 Z" fill="none" stroke="#9BE7FF" stroke-width="1.00"/><path d="M 75.000,597.558 L 60.000,623.538 L 30.000,623.538 L 15.000,597.558 L 30.000,571.577 L 60.000,571.577 Z" fill="none" stroke="#9BE7FF" stroke-width="1.00"/><path d="M 75.000,649.519 L 60.000,675.500 L 30.000,675.500 L 15.000,649.519 L 30.000,623.538 L 60.000,623.538 Z" fill="none" stroke="#9BE7FF" stroke-width="1.00"/><path d="M 75.000,701.481 L 60.000,727.461 L 30.000,727.461 L 15.000,701.481 L 30.000,675.500 L 60.000,675.500 Z" fill="none" stroke="#9BE7FF" stroke-width="1.00"/><path d="M 75.000,753.442 L 60.000,779.423 L 30.000,779.423 L 15.000,753.442 L 30.000,727.461 L 60.000,727.461 Z" fill="none" stroke="#9BE7FF" stroke-width="1.00"/><path d="M 75.000,805.404 L 60.000,831.384 L 30.000,831.384 L 15.000,805.404 L 30.000,779.423 L 60.000,779.423 Z" fill="none" stroke="#9BE7FF" stroke-width="1.00"/><path d="M 75.000,857.365 L 60.000,883.346 L 30.000,883.346 L 15.000,857.365 L 30.000,831.384 L 60.000,831.384 Z" fill="none" stroke="#9BE7FF" stroke-width="1.00"/><path d="M 75.000,909.327 L 60.000,935.307 L 30.000,935.307 L 15.000,909.327 L 30.000,883.346 L 60.000,883.346 Z" fill="none" stroke="#9BE7FF" stroke-width="1.00"/><path d="M 75.000,961.288 L 60.000,987.269 L 30.000,987.269 L 15.000,961.288 L 30.000,935.307 L 60.000,935.307 Z" fill="none" stroke="#9BE7FF" stroke-width="1.00"/><path d="M 75.000,1013.250 L 60.000,1039.230 L 30.000,1039.230 L 15.000,1013.250 L 30.000,987.269 L 60.000,987.269 Z" fill="none" stroke="#9BE7FF" stroke-width="1.00"/><path d="M 75.000,1065.211 L 60.000,1091.192 L 30.000,1091.192 L 15.000,1065.211 L 30.000,1039.230 L 60.000,1039.230 Z" fill="none" stroke="#9BE7FF" stroke-width="1.00"/><path d="M 120.000,-51.962 L 105.000,-25.981 L 75.000,-25.981 L 60.000,-51.962 L 75.000,-77.942 L 105.000,-77.942 Z" fill="none" stroke="#9BE7FF" stroke-width="1.00"/><path d="M 120.000,0.000 L 105.000,25.981 L 75.000,25.981 L 60.000,0.000 L 75.000,-25.981 L 105.000,-25.981 Z" fill="none" stroke="#9BE7FF" stroke-width="1.00"/><path d="M 120.000,51.962 L 105.000,77.942 L 75.000,77.942 L 60.000,51.962 L 75.000,25.981 L 105.000,25.981 Z" fill="none" stroke="#9BE7FF" stroke-width="1.00"/><path d="M 120.000,103.923 L 105.000,129.904 L 75.000,129.904 L 60.000,103.923 L 75.000,77.942 L 105.000,77.942 Z" fill="none" stroke="#9BE7FF" stroke-width="1.00"/><path d="M 120.000,155.885 L 105.000,181.865 L 75.000,181.865 L 60.000,155.885 L 75.000,129.904 L 105.000,129.904 Z" fill="none" stroke="#9BE7FF" stroke-width="1.00"/><path d="M 120.000,207.846 L 105.000,233.827 L 75.000,233.827 L 60.000,207.846 L 75.000,181.865 L 105.000,181.865 Z" fill="none" stroke="#9BE7FF" stroke-width="1.00"/><path d="M 120.000,259.808 L 105.000,285.788 L 75.000,285.788 L 60.000,259.808 L 75.000,233.827 L 105.000,233.827 Z" fill="none" stroke="#9BE7FF" stroke-width="1.00"/><path d="M 120.000,311.769 L 105.000,337.750 L 75.000,337.750 L 60.000,311.769 L 75.000,285.788 L 105.000,285.788 Z" fill="none" stroke="#9BE7FF" stroke-width="1.00"/><path d="M 120.000,363.731 L 105.000,389.711 L 75.000,389.711 L 60.000,363.731 L 75.000,337.750 L 105.000,337.750 Z" fill="none" stroke="#9BE7FF" stroke-width="1.00"/><path d="M 120.000,415.692 L 105.000,441.673 L 75.000,441.673 L 60.000,415.692 L 75.000,389.711 L 105.000,389.711 Z" fill="none" stroke="#9BE7FF" stroke-width="1.00"/><path d="M 120.000,467.654 L 105.000,493.634 L 75.000,493.634 L 60.000,467.654 L 75.000,441.673 L 105.000,441.673 Z" fill="none" stroke="#9BE7FF" stroke-width="1.00"/><path d="M 120.000,519.615 L 105.000,545.596 L 75.000,545.596 L 60.000,519.615 L 75.000,493.634 L 105.000,493.634 Z" fill="none" stroke="#9BE7FF" stroke-width="1.00"/><path d="M 120.000,571.577 L 105.000,597.558 L 75.000,597.558 L 60.000,571.577 L 75.000,545.596 L 105.000,545.596 Z" fill="none" stroke="#9BE7FF" stroke-width="1.00"/><path d="M 120.000,623.538 L 105.000,649.519 L 75.000,649.519 L 60.000,623.538 L 75.000,597.558 L 105.000,597.558 Z" fill="none" stroke="#9BE7FF" stroke-width="1.00"/><path d="M 120.000,675.500 L 105.000,701.481 L 75.000,701.481 L 60.000,675.500 L 75.000,649.519 L 105.000,649.519 Z" fill="none" stroke="#9BE7FF" stroke-width="1.00"/><path d="M 120.000,727.461 L 105.000,753.442 L 75.000,753.442 L 60.000,727.461 L 75.000,701.481 L 105.000,701.481 Z" fill="none" stroke="#9BE7FF" stroke-width="1.00"/><path d="M 120.000,779.423 L 105.000,805.404 L 75.000,805.404 L 60.000,779.423 L 75.000,753.442 L 105.000,753.442 Z" fill="none" stroke="#9BE7FF" stroke-width="1.00"/><path d="M 120.000,831.384 L 105.000,857.365 L 75.000,857.365 L 60.000,831.384 L 75.000,805.404 L 105.000,805.404 Z" fill="none" stroke="#9BE7FF" stroke-width="1.00"/><path d="M 120.000,883.346 L 105.000,909.327 L 75.000,909.327 L 60.000,883.346 L 75.000,857.365 L 105.000,857.365 Z" fill="none" stroke="#9BE7FF" stroke-width="1.00"/><path d="M 120.000,935.307 L 105.000,961.288 L 75.000,961.288 L 60.000,935.307 L 75.000,909.327 L 105.000,909.327 Z" fill="none" stroke="#9BE7FF" stroke-width="1.00"/><path d="M 120.000,987.269 L 105.000,1013.250 L 75.000,1013.250 L 60.000,987.269 L 75.000,961.288 L 105.000,961.288 Z" fill="none" stroke="#9BE7FF" stroke-width="1.00"/><path d="M 120.000,1039.230 L 105.000,1065.211 L 75.000,1065.211 L 60.000,1039.230 L 75.000,1013.250 L 105.000,1013.250 Z" fill="none" stroke="#9BE7FF" stroke-width="1.00"/><path d="M 165.000,-25.981 L 150.000,0.000 L 120.000,0.000 L 105.000,-25.981 L 120.000,-51.962 L 150.000,-51.962 Z" fill="none" stroke="#9BE7FF" stroke-width="1.00"/><path d="M 165.000,25.981 L 150.000,51.962 L 120.000,51.962 L 105.000,25.981 L 120.000,0.000 L 150.000,0.000 Z" fill="none" stroke="#9BE7FF" stroke-width="1.00"/><path d="M 165.000,77.942 L 150.000,103.923 L 120.000,103.923 L 105.000,77.942 L 120.000,51.962 L 150.000,51.962 Z" fill="none" stroke="#9BE7FF" stroke-width="1.00"/><path d="M 165.000,129.904 L 150.000,155.885 L 120.000,155.885 L 105.000,129.904 L 120.000,103.923 L 150.000,103.923 Z" fill="none" stroke="#9BE7FF" stroke-width="1.00"/><path d="M 165.000,181.865 L 150.000,207.846 L 120.000,207.846 L 105.000,181.865 L 120.000,155.885 L 150.000,155.885 Z" fill="none" stroke="#9BE7FF" stroke-width="1.00"/><path d="M 165.000,233.827 L 150.000,259.808 L 120.000,259.808 L 105.000,233.827 L 120.000,207.846 L 150.000,207.846 Z" fill="none" stroke="#9BE7FF" stroke-width="1.00"/><path d="M 165.000,285.788 L 150.000,311.769 L 120.000,311.769 L 105.000,285.788 L 120.000,259.808 L 150.000,259.808 Z" fill="none" stroke="#9BE7FF" stroke-width="1.00"/><path d="M 165.000,337.750 L 150.000,363.731 L 120.000,363.731 L 105.000,337.750 L 120.000,311.769 L 150.000,311.769 Z" fill="none" stroke="#9BE7FF" stroke-width="1.00"/><path d="M 165.000,389.711 L 150.000,415.692 L 120.000,415.692 L 105.000,389.711 L 120.000,363.731 L 150.000,363.731 Z" fill="none" stroke="#9BE7FF" stroke-width="1.00"/><path d="M 165.000,441.673 L 150.000,467.654 L 120.000,467.654 L 105.000,441.673 L 120.000,415.692 L 150.000,415.692 Z" fill="none" stroke="#9BE7FF" stroke-width="1.00"/><path d="M 165.000,493.634 L 150.000,519.615 L 120.000,519.615 L 105.000,493.634 L 120.000,467.654 L 150.000,467.654 Z" fill="none" stroke="#9BE7FF" stroke-width="1.00"/><path d="M 165.000,545.596 L 150.000,571.577 L 120.000,571.577 L 105.000,545.596 L 120.000,519.615 L 150.000,519.615 Z" fill="none" stroke="#9BE7FF" stroke-width="1.00"/><path d="M 165.000,597.558 L 150.000,623.538 L 120.000,623.538 L 105.000,597.558 L 120.000,571.577 L 150.000,571.577 Z" fill="none" stroke="#9BE7FF" stroke-width="1.00"/><path d="M 165.000,649.519 L 150.000,675.500 L 120.000,675.500 L 105.000,649.519 L 120.000,623.538 L 150.000,623.538 Z" fill="none" stroke="#9BE7FF" stroke-width="1.00"/><path d="M 165.000,701.481 L 150.000,727.461 L 120.000,727.461 L 105.000,701.481 L 120.000,675.500 L 150.000,675.500 Z" fill="none" stroke="#9BE7FF" stroke-width="1.00"/><path d="M 165.000,753.442 L 150.000,779.423 L 120.000,779.423 L 105.000,753.442 L 120.000,727.461 L 150.000,727.461 Z" fill="none" stroke="#9BE7FF" stroke-width="1.00"/><path d="M 165.000,805.404 L 150.000,831.384 L 120.000,831.384 L 105.000,805.404 L 120.000,779.423 L 150.000,779.423 Z" fill="none" stroke="#9BE7FF" stroke-width="1.00"/><path d="M 165.000,857.365 L 150.000,883.346 L 120.000,883.346 L 105.000,857.365 L 120.000,831.384 L 150.000,831.384 Z" fill="none" stroke="#9BE7FF" stroke-width="1.00"/><path d="M 165.000,909.327 L 150.000,935.307 L 120.000,935.307 L 105.000,909.327 L 120.000,883.346 L 150.000,883.346 Z" fill="none" stroke="#9BE7FF" stroke-width="1.00"/><path d="M 165.000,961.288 L 150.000,987.269 L 120.000,987.269 L 105.000,961.288 L 120.000,935.307 L 150.000,935.307 Z" fill="none" stroke="#9BE7FF" stroke-width="1.00"/><path d="M 165.000,1013.250 L 150.000,1039.230 L 120.000,1039.230 L 105.000,1013.250 L 120.000,987.269 L 150.000,987.269 Z" fill="none" stroke="#9BE7FF" stroke-width="1.00"/><path d="M 165.000,1065.211 L 150.000,1091.192 L 120.000,1091.192 L 105.000,1065.211 L 120.000,1039.230 L 150.000,1039.230 Z" fill="none" stroke="#9BE7FF" stroke-width="1.00"/><path d="M 210.000,-51.962 L 195.000,-25.981 L 165.000,-25.981 L 150.000,-51.962 L 165.000,-77.942 L 195.000,-77.942 Z" fill="none" stroke="#9BE7FF" stroke-width="1.00"/><path d="M 210.000,0.000 L 195.000,25.981 L 165.000,25.981 L 150.000,0.000 L 165.000,-25.981 L 195.000,-25.981 Z" fill="none" stroke="#9BE7FF" stroke-width="1.00"/><path d="M 210.000,51.962 L 195.000,77.942 L 165.000,77.942 L 150.000,51.962 L 165.000,25.981 L 195.000,25.981 Z" fill="none" stroke="#9BE7FF" stroke-width="1.00"/><path d="M 210.000,103.923 L 195.000,129.904 L 165.000,129.904 L 150.000,103.923 L 165.000,77.942 L 195.000,77.942 Z" fill="none" stroke="#9BE7FF" stroke-width="1.00"/><path d="M 210.000,155.885 L 195.000,181.865 L 165.000,181.865 L 150.000,155.885 L 165.000,129.904 L 195.000,129.904 Z" fill="none" stroke="#9BE7FF" stroke-width="1.00"/><path d="M 210.000,207.846 L 195.000,233.827 L 165.000,233.827 L 150.000,207.846 L 165.000,181.865 L 195.000,181.865 Z" fill="none" stroke="#9BE7FF" stroke-width="1.00"/><path d="M 210.000,259.808 L 195.000,285.788 L 165.000,285.788 L 150.000,259.808 L 165.000,233.827 L 195.000,233.827 Z" fill="none" stroke="#9BE7FF" stroke-width="1.00"/><path d="M 210.000,311.769 L 195.000,337.750 L 165.000,337.750 L 150.000,311.769 L 165.000,285.788 L 195.000,285.788 Z" fill="none" stroke="#9BE7FF" stroke-width="1.00"/><path d="M 210.000,363.731 L 195.000,389.711 L 165.000,389.711 L 150.000,363.731 L 165.000,337.750 L 195.000,337.750 Z" fill="none" stroke="#9BE7FF" stroke-width="1.00"/><path d="M 210.000,415.692 L 195.000,441.673 L 165.000,441.673 L 150.000,415.692 L 165.000,389.711 L 195.000,389.711 Z" fill="none" stroke="#9BE7FF" stroke-width="1.00"/><path d="M 210.000,467.654 L 195.000,493.634 L 165.000,493.634 L 150.000,467.654 L 165.000,441.673 L 195.000,441.673 Z" fill="none" stroke="#9BE7FF" stroke-width="1.00"/><path d="M 210.000,519.615 L 195.000,545.596 L 165.000,545.596 L 150.000,519.615 L 165.000,493.634 L 195.000,493.634 Z" fill="none" stroke="#9BE7FF" stroke-width="1.00"/><path d="M 210.000,571.577 L 195.000,597.558 L 165.000,597.558 L 150.000,571.577 L 165.000,545.596 L 195.000,545.596 Z" fill="none" stroke="#9BE7FF" stroke-width="1.00"/><path d="M 210.000,623.538 L 195.000,649.519 L 165.000,649.519 L 150.000,623.538 L 165.000,597.558 L 195.000,597.558 Z" fill="none" stroke="#9BE7FF" stroke-width="1.00"/><path d="M 210.000,675.500 L 195.000,701.481 L 165.000,701.481 L 150.000,675.500 L 165.000,649.519 L 195.000,649.519 Z" fill="none" stroke="#9BE7FF" stroke-width="1.00"/><path d="M 210.000,727.461 L 195.000,753.442 L 165.000,753.442 L 150.000,727.461 L 165.000,701.481 L 195.000,701.481 Z" fill="none" stroke="#9BE7FF" stroke-width="1.00"/><path d="M 210.000,779.423 L 195.000,805.404 L 165.000,805.404 L 150.000,779.423 L 165.000,753.442 L 195.000,753.442 Z" fill="none" stroke="#9BE7FF" stroke-width="1.00"/><path d="M 210.000,831.384 L 195.000,857.365 L 165.000,857.365 L 150.000,831.384 L 165.000,805.404 L 195.000,805.404 Z" fill="none" stroke="#9BE7FF" stroke-width="1.00"/><path d="M 210.000,883.346 L 195.000,909.327 L 165.000,909.327 L 150.000,883.346 L 165.000,857.365 L 195.000,857.365 Z" fill="none" stroke="#9BE7FF" stroke-width="1.00"/><path d="M 210.000,935.307 L 195.000,961.288 L 165.000,961.288 L 150.000,935.307 L 165.000,909.327 L 195.000,909.327 Z" fill="none" stroke="#9BE7FF" stroke-width="1.00"/><path d="M 210.000,987.269 L 195.000,1013.250 L 165.000,1013.250 L 150.000,987.269 L 165.000,961.288 L 195.000,961.288 Z" fill="none" stroke="#9BE7FF" stroke-width="1.00"/><path d="M 210.000,1039.230 L 195.000,1065.211 L 165.000,1065.211 L 150.000,1039.230 L 165.000,1013.250 L 195.000,1013.250 Z" fill="none" stroke="#9BE7FF" stroke-width="1.00"/><path d="M 255.000,-25.981 L 240.000,0.000 L 210.000,0.000 L 195.000,-25.981 L 210.000,-51.962 L 240.000,-51.962 Z" fill="none" stroke="#9BE7FF" stroke-width="1.00"/><path d="M 255.000,25.981 L 240.000,51.962 L 210.000,51.962 L 195.000,25.981 L 210.000,0.000 L 240.000,0.000 Z" fill="none" stroke="#9BE7FF" stroke-width="1.00"/><path d="M 255.000,77.942 L 240.000,103.923 L 210.000,103.923 L 195.000,77.942 L 210.000,51.962 L 240.000,51.962 Z" fill="none" stroke="#9BE7FF" stroke-width="1.00"/><path d="M 255.000,129.904 L 240.000,155.885 L 210.000,155.885 L 195.000,129.904 L 210.000,103.923 L 240.000,103.923 Z" fill="none" stroke="#9BE7FF" stroke-width="1.00"/><path d="M 255.000,181.865 L 240.000,207.846 L 210.000,207.846 L 195.000,181.865 L 210.000,155.885 L 240.000,155.885 Z" fill="none" stroke="#9BE7FF" stroke-width="1.00"/><path d="M 255.000,233.827 L 240.000,259.808 L 210.000,259.808 L 195.000,233.827 L 210.000,207.846 L 240.000,207.846 Z" fill="none" stroke="#9BE7FF" stroke-width="1.00"/><path d="M 255.000,285.788 L 240.000,311.769 L 210.000,311.769 L 195.000,285.788 L 210.000,259.808 L 240.000,259.808 Z" fill="none" stroke="#9BE7FF" stroke-width="1.00"/><path d="M 255.000,337.750 L 240.000,363.731 L 210.000,363.731 L 195.000,337.750 L 210.000,311.769 L 240.000,311.769 Z" fill="none" stroke="#9BE7FF" stroke-width="1.00"/><path d="M 255.000,389.711 L 240.000,415.692 L 210.000,415.692 L 195.000,389.711 L 210.000,363.731 L 240.000,363.731 Z" fill="none" stroke="#9BE7FF" stroke-width="1.00"/><path d="M 255.000,441.673 L 240.000,467.654 L 210.000,467.654 L 195.000,441.673 L 210.000,415.692 L 240.000,415.692 Z" fill="none" stroke="#9BE7FF" stroke-width="1.00"/><path d="M 255.000,493.634 L 240.000,519.615 L 210.000,519.615 L 195.000,493.634 L 210.000,467.654 L 240.000,467.654 Z" fill="none" stroke="#9BE7FF" stroke-width="1.00"/><path d="M 255.000,545.596 L 240.000,571.577 L 210.000,571.577 L 195.000,545.596 L 210.000,519.615 L 240.000,519.615 Z" fill="none" stroke="#9BE7FF" stroke-width="1.00"/><path d="M 255.000,597.558 L 240.000,623.538 L 210.000,623.538 L 195.000,597.558 L 210.000,571.577 L 240.000,571.577 Z" fill="none" stroke="#9BE7FF" stroke-width="1.00"/><path d="M 255.000,649.519 L 240.000,675.500 L 210.000,675.500 L 195.000,649.519 L 210.000,623.538 L 240.000,623.538 Z" fill="none" stroke="#9BE7FF" stroke-width="1.00"/><path d="M 255.000,701.481 L 240.000,727.461 L 210.000,727.461 L 195.000,701.481 L 210.000,675.500 L 240.000,675.500 Z" fill="none" stroke="#9BE7FF" stroke-width="1.00"/><path d="M 255.000,753.442 L 240.000,779.423 L 210.000,779.423 L 195.000,753.442 L 210.000,727.461 L 240.000,727.461 Z" fill="none" stroke="#9BE7FF" stroke-width="1.00"/><path d="M 255.000,805.404 L 240.000,831.384 L 210.000,831.384 L 195.000,805.404 L 210.000,779.423 L 240.000,779.423 Z" fill="none" stroke="#9BE7FF" stroke-width="1.00"/><path d="M 255.000,857.365 L 240.000,883.346 L 210.000,883.346 L 195.000,857.365 L 210.000,831.384 L 240.000,831.384 Z" fill="none" stroke="#9BE7FF" stroke-width="1.00"/><path d="M 255.000,909.327 L 240.000,935.307 L 210.000,935.307 L 195.000,909.327 L 210.000,883.346 L 240.000,883.346 Z" fill="none" stroke="#9BE7FF" stroke-width="1.00"/><path d="M 255.000,961.288 L 240.000,987.269 L 210.000,987.269 L 195.000,961.288 L 210.000,935.307 L 240.000,935.307 Z" fill="none" stroke="#9BE7FF" stroke-width="1.00"/><path d="M 255.000,1013.250 L 240.000,1039.230 L 210.000,1039.230 L 195.000,1013.250 L 210.000,987.269 L 240.000,987.269 Z" fill="none" stroke="#9BE7FF" stroke-width="1.00"/><path d="M 255.000,1065.211 L 240.000,1091.192 L 210.000,1091.192 L 195.000,1065.211 L 210.000,1039.230 L 240.000,1039.230 Z" fill="none" stroke="#9BE7FF" stroke-width="1.00"/><path d="M 300.000,-51.962 L 285.000,-25.981 L 255.000,-25.981 L 240.000,-51.962 L 255.000,-77.942 L 285.000,-77.942 Z" fill="none" stroke="#9BE7FF" stroke-width="1.00"/><path d="M 300.000,0.000 L 285.000,25.981 L 255.000,25.981 L 240.000,0.000 L 255.000,-25.981 L 285.000,-25.981 Z" fill="none" stroke="#9BE7FF" stroke-width="1.00"/><path d="M 300.000,51.962 L 285.000,77.942 L 255.000,77.942 L 240.000,51.962 L 255.000,25.981 L 285.000,25.981 Z" fill="none" stroke="#9BE7FF" stroke-width="1.00"/><path d="M 300.000,103.923 L 285.000,129.904 L 255.000,129.904 L 240.000,103.923 L 255.000,77.942 L 285.000,77.942 Z" fill="none" stroke="#9BE7FF" stroke-width="1.00"/><path d="M 300.000,155.885 L 285.000,181.865 L 255.000,181.865 L 240.000,155.885 L 255.000,129.904 L 285.000,129.904 Z" fill="none" stroke="#9BE7FF" stroke-width="1.00"/><path d="M 300.000,207.846 L 285.000,233.827 L 255.000,233.827 L 240.000,207.846 L 255.000,181.865 L 285.000,181.865 Z" fill="none" stroke="#9BE7FF" stroke-width="1.00"/><path d="M 300.000,259.808 L 285.000,285.788 L 255.000,285.788 L 240.000,259.808 L 255.000,233.827 L 285.000,233.827 Z" fill="none" stroke="#9BE7FF" stroke-width="1.00"/><path d="M 300.000,311.769 L 285.000,337.750 L 255.000,337.750 L 240.000,311.769 L 255.000,285.788 L 285.000,285.788 Z" fill="none" stroke="#9BE7FF" stroke-width="1.00"/><path d="M 300.000,363.731 L 285.000,389.711 L 255.000,389.711 L 240.000,363.731 L 255.000,337.750 L 285.000,337.750 Z" fill="none" stroke="#9BE7FF" stroke-width="1.00"/><path d="M 300.000,415.692 L 285.000,441.673 L 255.000,441.673 L 240.000,415.692 L 255.000,389.711 L 285.000,389.711 Z" fill="none" stroke="#9BE7FF" stroke-width="1.00"/><path d="M 300.000,467.654 L 285.000,493.634 L 255.000,493.634 L 240.000,467.654 L 255.000,441.673 L 285.000,441.673 Z" fill="none" stroke="#9BE7FF" stroke-width="1.00"/><path d="M 300.000,519.615 L 285.000,545.596 L 255.000,545.596 L 240.000,519.615 L 255.000,493.634 L 285.000,493.634 Z" fill="none" stroke="#9BE7FF" stroke-width="1.00"/><path d="M 300.000,571.577 L 285.000,597.558 L 255.000,597.558 L 240.000,571.577 L 255.000,545.596 L 285.000,545.596 Z" fill="none" stroke="#9BE7FF" stroke-width="1.00"/><path d="M 300.000,623.538 L 285.000,649.519 L 255.000,649.519 L 240.000,623.538 L 255.000,597.558 L 285.000,597.558 Z" fill="none" stroke="#9BE7FF" stroke-width="1.00"/><path d="M 300.000,675.500 L 285.000,701.481 L 255.000,701.481 L 240.000,675.500 L 255.000,649.519 L 285.000,649.519 Z" fill="none" stroke="#9BE7FF" stroke-width="1.00"/><path d="M 300.000,727.461 L 285.000,753.442 L 255.000,753.442 L 240.000,727.461 L 255.000,701.481 L 285.000,701.481 Z" fill="none" stroke="#9BE7FF" stroke-width="1.00"/><path d="M 300.000,779.423 L 285.000,805.404 L 255.000,805.404 L 240.000,779.423 L 255.000,753.442 L 285.000,753.442 Z" fill="none" stroke="#9BE7FF" stroke-width="1.00"/><path d="M 300.000,831.384 L 285.000,857.365 L 255.000,857.365 L 240.000,831.384 L 255.000,805.404 L 285.000,805.404 Z" fill="none" stroke="#9BE7FF" stroke-width="1.00"/><path d="M 300.000,883.346 L 285.000,909.327 L 255.000,909.327 L 240.000,883.346 L 255.000,857.365 L 285.000,857.365 Z" fill="none" stroke="#9BE7FF" stroke-width="1.00"/><path d="M 300.000,935.307 L 285.000,961.288 L 255.000,961.288 L 240.000,935.307 L 255.000,909.327 L 285.000,909.327 Z" fill="none" stroke="#9BE7FF" stroke-width="1.00"/><path d="M 300.000,987.269 L 285.000,1013.250 L 255.000,1013.250 L 240.000,987.269 L 255.000,961.288 L 285.000,961.288 Z" fill="none" stroke="#9BE7FF" stroke-width="1.00"/><path d="M 300.000,1039.230 L 285.000,1065.211 L 255.000,1065.211 L 240.000,1039.230 L 255.000,1013.250 L 285.000,1013.250 Z" fill="none" stroke="#9BE7FF" stroke-width="1.00"/><path d="M 345.000,-25.981 L 330.000,0.000 L 300.000,0.000 L 285.000,-25.981 L 300.000,-51.962 L 330.000,-51.962 Z" fill="none" stroke="#9BE7FF" stroke-width="1.00"/><path d="M 345.000,25.981 L 330.000,51.962 L 300.000,51.962 L 285.000,25.981 L 300.000,0.000 L 330.000,0.000 Z" fill="none" stroke="#9BE7FF" stroke-width="1.00"/><path d="M 345.000,77.942 L 330.000,103.923 L 300.000,103.923 L 285.000,77.942 L 300.000,51.962 L 330.000,51.962 Z" fill="none" stroke="#9BE7FF" stroke-width="1.00"/><path d="M 345.000,129.904 L 330.000,155.885 L 300.000,155.885 L 285.000,129.904 L 300.000,103.923 L 330.000,103.923 Z" fill="none" stroke="#9BE7FF" stroke-width="1.00"/><path d="M 345.000,181.865 L 330.000,207.846 L 300.000,207.846 L 285.000,181.865 L 300.000,155.885 L 330.000,155.885 Z" fill="none" stroke="#9BE7FF" stroke-width="1.00"/><path d="M 345.000,233.827 L 330.000,259.808 L 300.000,259.808 L 285.000,233.827 L 300.000,207.846 L 330.000,207.846 Z" fill="none" stroke="#9BE7FF" stroke-width="1.00"/><path d="M 345.000,285.788 L 330.000,311.769 L 300.000,311.769 L 285.000,285.788 L 300.000,259.808 L 330.000,259.808 Z" fill="none" stroke="#9BE7FF" stroke-width="1.00"/><path d="M 345.000,337.750 L 330.000,363.731 L 300.000,363.731 L 285.000,337.750 L 300.000,311.769 L 330.000,311.769 Z" fill="none" stroke="#9BE7FF" stroke-width="1.00"/><path d="M 345.000,389.711 L 330.000,415.692 L 300.000,415.692 L 285.000,389.711 L 300.000,363.731 L 330.000,363.731 Z" fill="none" stroke="#9BE7FF" stroke-width="1.00"/><path d="M 345.000,441.673 L 330.000,467.654 L 300.000,467.654 L 285.000,441.673 L 300.000,415.692 L 330.000,415.692 Z" fill="none" stroke="#9BE7FF" stroke-width="1.00"/><path d="M 345.000,493.634 L 330.000,519.615 L 300.000,519.615 L 285.000,493.634 L 300.000,467.654 L 330.000,467.654 Z" fill="none" stroke="#9BE7FF" stroke-width="1.00"/><path d="M 345.000,545.596 L 330.000,571.577 L 300.000,571.577 L 285.000,545.596 L 300.000,519.615 L 330.000,519.615 Z" fill="none" stroke="#9BE7FF" stroke-width="1.00"/><path d="M 345.000,597.558 L 330.000,623.538 L 300.000,623.538 L 285.000,597.558 L 300.000,571.577 L 330.000,571.577 Z" fill="none" stroke="#9BE7FF" stroke-width="1.00"/><path d="M 345.000,649.519 L 330.000,675.500 L 300.000,675.500 L 285.000,649.519 L 300.000,623.538 L 330.000,623.538 Z" fill="none" stroke="#9BE7FF" stroke-width="1.00"/><path d="M 345.000,701.481 L 330.000,727.461 L 300.000,727.461 L 285.000,701.481 L 300.000,675.500 L 330.000,675.500 Z" fill="none" stroke="#9BE7FF" stroke-width="1.00"/><path d="M 345.000,753.442 L 330.000,779.423 L 300.000,779.423 L 285.000,753.442 L 300.000,727.461 L 330.000,727.461 Z" fill="none" stroke="#9BE7FF" stroke-width="1.00"/><path d="M 345.000,805.404 L 330.000,831.384 L 300.000,831.384 L 285.000,805.404 L 300.000,779.423 L 330.000,779.423 Z" fill="none" stroke="#9BE7FF" stroke-width="1.00"/><path d="M 345.000,857.365 L 330.000,883.346 L 300.000,883.346 L 285.000,857.365 L 300.000,831.384 L 330.000,831.384 Z" fill="none" stroke="#9BE7FF" stroke-width="1.00"/><path d="M 345.000,909.327 L 330.000,935.307 L 300.000,935.307 L 285.000,909.327 L 300.000,883.346 L 330.000,883.346 Z" fill="none" stroke="#9BE7FF" stroke-width="1.00"/><path d="M 345.000,961.288 L 330.000,987.269 L 300.000,987.269 L 285.000,961.288 L 300.000,935.307 L 330.000,935.307 Z" fill="none" stroke="#9BE7FF" stroke-width="1.00"/><path d="M 345.000,1013.250 L 330.000,1039.230 L 300.000,1039.230 L 285.000,1013.250 L 300.000,987.269 L 330.000,987.269 Z" fill="none" stroke="#9BE7FF" stroke-width="1.00"/><path d="M 345.000,1065.211 L 330.000,1091.192 L 300.000,1091.192 L 285.000,1065.211 L 300.000,1039.230 L 330.000,1039.230 Z" fill="none" stroke="#9BE7FF" stroke-width="1.00"/><path d="M 390.000,-51.962 L 375.000,-25.981 L 345.000,-25.981 L 330.000,-51.962 L 345.000,-77.942 L 375.000,-77.942 Z" fill="none" stroke="#9BE7FF" stroke-width="1.00"/><path d="M 390.000,0.000 L 375.000,25.981 L 345.000,25.981 L 330.000,0.000 L 345.000,-25.981 L 375.000,-25.981 Z" fill="none" stroke="#9BE7FF" stroke-width="1.00"/><path d="M 390.000,51.962 L 375.000,77.942 L 345.000,77.942 L 330.000,51.962 L 345.000,25.981 L 375.000,25.981 Z" fill="none" stroke="#9BE7FF" stroke-width="1.00"/><path d="M 390.000,103.923 L 375.000,129.904 L 345.000,129.904 L 330.000,103.923 L 345.000,77.942 L 375.000,77.942 Z" fill="none" stroke="#9BE7FF" stroke-width="1.00"/><path d="M 390.000,155.885 L 375.000,181.865 L 345.000,181.865 L 330.000,155.885 L 345.000,129.904 L 375.000,129.904 Z" fill="none" stroke="#9BE7FF" stroke-width="1.00"/><path d="M 390.000,207.846 L 375.000,233.827 L 345.000,233.827 L 330.000,207.846 L 345.000,181.865 L 375.000,181.865 Z" fill="none" stroke="#9BE7FF" stroke-width="1.00"/><path d="M 390.000,259.808 L 375.000,285.788 L 345.000,285.788 L 330.000,259.808 L 345.000,233.827 L 375.000,233.827 Z" fill="none" stroke="#9BE7FF" stroke-width="1.00"/><path d="M 390.000,311.769 L 375.000,337.750 L 345.000,337.750 L 330.000,311.769 L 345.000,285.788 L 375.000,285.788 Z" fill="none" stroke="#9BE7FF" stroke-width="1.00"/><path d="M 390.000,363.731 L 375.000,389.711 L 345.000,389.711 L 330.000,363.731 L 345.000,337.750 L 375.000,337.750 Z" fill="none" stroke="#9BE7FF" stroke-width="1.00"/><path d="M 390.000,415.692 L 375.000,441.673 L 345.000,441.673 L 330.000,415.692 L 345.000,389.711 L 375.000,389.711 Z" fill="none" stroke="#9BE7FF" stroke-width="1.00"/><path d="M 390.000,467.654 L 375.000,493.634 L 345.000,493.634 L 330.000,467.654 L 345.000,441.673 L 375.000,441.673 Z" fill="none" stroke="#9BE7FF" stroke-width="1.00"/><path d="M 390.000,519.615 L 375.000,545.596 L 345.000,545.596 L 330.000,519.615 L 345.000,493.634 L 375.000,493.634 Z" fill="none" stroke="#9BE7FF" stroke-width="1.00"/><path d="M 390.000,571.577 L 375.000,597.558 L 345.000,597.558 L 330.000,571.577 L 345.000,545.596 L 375.000,545.596 Z" fill="none" stroke="#9BE7FF" stroke-width="1.00"/><path d="M 390.000,623.538 L 375.000,649.519 L 345.000,649.519 L 330.000,623.538 L 345.000,597.558 L 375.000,597.558 Z" fill="none" stroke="#9BE7FF" stroke-width="1.00"/><path d="M 390.000,675.500 L 375.000,701.481 L 345.000,701.481 L 330.000,675.500 L 345.000,649.519 L 375.000,649.519 Z" fill="none" stroke="#9BE7FF" stroke-width="1.00"/><path d="M 390.000,727.461 L 375.000,753.442 L 345.000,753.442 L 330.000,727.461 L 345.000,701.481 L 375.000,701.481 Z" fill="none" stroke="#9BE7FF" stroke-width="1.00"/><path d="M 390.000,779.423 L 375.000,805.404 L 345.000,805.404 L 330.000,779.423 L 345.000,753.442 L 375.000,753.442 Z" fill="none" stroke="#9BE7FF" stroke-width="1.00"/><path d="M 390.000,831.384 L 375.000,857.365 L 345.000,857.365 L 330.000,831.384 L 345.000,805.404 L 375.000,805.404 Z" fill="none" stroke="#9BE7FF" stroke-width="1.00"/><path d="M 390.000,883.346 L 375.000,909.327 L 345.000,909.327 L 330.000,883.346 L 345.000,857.365 L 375.000,857.365 Z" fill="none" stroke="#9BE7FF" stroke-width="1.00"/><path d="M 390.000,935.307 L 375.000,961.288 L 345.000,961.288 L 330.000,935.307 L 345.000,909.327 L 375.000,909.327 Z" fill="none" stroke="#9BE7FF" stroke-width="1.00"/><path d="M 390.000,987.269 L 375.000,1013.250 L 345.000,1013.250 L 330.000,987.269 L 345.000,961.288 L 375.000,961.288 Z" fill="none" stroke="#9BE7FF" stroke-width="1.00"/><path d="M 390.000,1039.230 L 375.000,1065.211 L 345.000,1065.211 L 330.000,1039.230 L 345.000,1013.250 L 375.000,1013.250 Z" fill="none" stroke="#9BE7FF" stroke-width="1.00"/><path d="M 435.000,-25.981 L 420.000,0.000 L 390.000,0.000 L 375.000,-25.981 L 390.000,-51.962 L 420.000,-51.962 Z" fill="none" stroke="#9BE7FF" stroke-width="1.00"/><path d="M 435.000,25.981 L 420.000,51.962 L 390.000,51.962 L 375.000,25.981 L 390.000,0.000 L 420.000,0.000 Z" fill="none" stroke="#9BE7FF" stroke-width="1.00"/><path d="M 435.000,77.942 L 420.000,103.923 L 390.000,103.923 L 375.000,77.942 L 390.000,51.962 L 420.000,51.962 Z" fill="none" stroke="#9BE7FF" stroke-width="1.00"/><path d="M 435.000,129.904 L 420.000,155.885 L 390.000,155.885 L 375.000,129.904 L 390.000,103.923 L 420.000,103.923 Z" fill="none" stroke="#9BE7FF" stroke-width="1.00"/><path d="M 435.000,181.865 L 420.000,207.846 L 390.000,207.846 L 375.000,181.865 L 390.000,155.885 L 420.000,155.885 Z" fill="none" stroke="#9BE7FF" stroke-width="1.00"/><path d="M 435.000,233.827 L 420.000,259.808 L 390.000,259.808 L 375.000,233.827 L 390.000,207.846 L 420.000,207.846 Z" fill="none" stroke="#9BE7FF" stroke-width="1.00"/><path d="M 435.000,285.788 L 420.000,311.769 L 390.000,311.769 L 375.000,285.788 L 390.000,259.808 L 420.000,259.808 Z" fill="none" stroke="#9BE7FF" stroke-width="1.00"/><path d="M 435.000,337.750 L 420.000,363.731 L 390.000,363.731 L 375.000,337.750 L 390.000,311.769 L 420.000,311.769 Z" fill="none" stroke="#9BE7FF" stroke-width="1.00"/><path d="M 435.000,389.711 L 420.000,415.692 L 390.000,415.692 L 375.000,389.711 L 390.000,363.731 L 420.000,363.731 Z" fill="none" stroke="#9BE7FF" stroke-width="1.00"/><path d="M 435.000,441.673 L 420.000,467.654 L 390.000,467.654 L 375.000,441.673 L 390.000,415.692 L 420.000,415.692 Z" fill="none" stroke="#9BE7FF" stroke-width="1.00"/><path d="M 435.000,493.634 L 420.000,519.615 L 390.000,519.615 L 375.000,493.634 L 390.000,467.654 L 420.000,467.654 Z" fill="none" stroke="#9BE7FF" stroke-width="1.00"/><path d="M 435.000,545.596 L 420.000,571.577 L 390.000,571.577 L 375.000,545.596 L 390.000,519.615 L 420.000,519.615 Z" fill="none" stroke="#9BE7FF" stroke-width="1.00"/><path d="M 435.000,597.558 L 420.000,623.538 L 390.000,623.538 L 375.000,597.558 L 390.000,571.577 L 420.000,571.577 Z" fill="none" stroke="#9BE7FF" stroke-width="1.00"/><path d="M 435.000,649.519 L 420.000,675.500 L 390.000,675.500 L 375.000,649.519 L 390.000,623.538 L 420.000,623.538 Z" fill="none" stroke="#9BE7FF" stroke-width="1.00"/><path d="M 435.000,701.481 L 420.000,727.461 L 390.000,727.461 L 375.000,701.481 L 390.000,675.500 L 420.000,675.500 Z" fill="none" stroke="#9BE7FF" stroke-width="1.00"/><path d="M 435.000,753.442 L 420.000,779.423 L 390.000,779.423 L 375.000,753.442 L 390.000,727.461 L 420.000,727.461 Z" fill="none" stroke="#9BE7FF" stroke-width="1.00"/><path d="M 435.000,805.404 L 420.000,831.384 L 390.000,831.384 L 375.000,805.404 L 390.000,779.423 L 420.000,779.423 Z" fill="none" stroke="#9BE7FF" stroke-width="1.00"/><path d="M 435.000,857.365 L 420.000,883.346 L 390.000,883.346 L 375.000,857.365 L 390.000,831.384 L 420.000,831.384 Z" fill="none" stroke="#9BE7FF" stroke-width="1.00"/><path d="M 435.000,909.327 L 420.000,935.307 L 390.000,935.307 L 375.000,909.327 L 390.000,883.346 L 420.000,883.346 Z" fill="none" stroke="#9BE7FF" stroke-width="1.00"/><path d="M 435.000,961.288 L 420.000,987.269 L 390.000,987.269 L 375.000,961.288 L 390.000,935.307 L 420.000,935.307 Z" fill="none" stroke="#9BE7FF" stroke-width="1.00"/><path d="M 435.000,1013.250 L 420.000,1039.230 L 390.000,1039.230 L 375.000,1013.250 L 390.000,987.269 L 420.000,987.269 Z" fill="none" stroke="#9BE7FF" stroke-width="1.00"/><path d="M 435.000,1065.211 L 420.000,1091.192 L 390.000,1091.192 L 375.000,1065.211 L 390.000,1039.230 L 420.000,1039.230 Z" fill="none" stroke="#9BE7FF" stroke-width="1.00"/><path d="M 480.000,-51.962 L 465.000,-25.981 L 435.000,-25.981 L 420.000,-51.962 L 435.000,-77.942 L 465.000,-77.942 Z" fill="none" stroke="#9BE7FF" stroke-width="1.00"/><path d="M 480.000,0.000 L 465.000,25.981 L 435.000,25.981 L 420.000,0.000 L 435.000,-25.981 L 465.000,-25.981 Z" fill="none" stroke="#9BE7FF" stroke-width="1.00"/><path d="M 480.000,51.962 L 465.000,77.942 L 435.000,77.942 L 420.000,51.962 L 435.000,25.981 L 465.000,25.981 Z" fill="none" stroke="#9BE7FF" stroke-width="1.00"/><path d="M 480.000,103.923 L 465.000,129.904 L 435.000,129.904 L 420.000,103.923 L 435.000,77.942 L 465.000,77.942 Z" fill="none" stroke="#9BE7FF" stroke-width="1.00"/><path d="M 480.000,155.885 L 465.000,181.865 L 435.000,181.865 L 420.000,155.885 L 435.000,129.904 L 465.000,129.904 Z" fill="none" stroke="#9BE7FF" stroke-width="1.00"/><path d="M 480.000,207.846 L 465.000,233.827 L 435.000,233.827 L 420.000,207.846 L 435.000,181.865 L 465.000,181.865 Z" fill="none" stroke="#9BE7FF" stroke-width="1.00"/><path d="M 480.000,259.808 L 465.000,285.788 L 435.000,285.788 L 420.000,259.808 L 435.000,233.827 L 465.000,233.827 Z" fill="none" stroke="#9BE7FF" stroke-width="1.00"/><path d="M 480.000,311.769 L 465.000,337.750 L 435.000,337.750 L 420.000,311.769 L 435.000,285.788 L 465.000,285.788 Z" fill="none" stroke="#9BE7FF" stroke-width="1.00"/><path d="M 480.000,363.731 L 465.000,389.711 L 435.000,389.711 L 420.000,363.731 L 435.000,337.750 L 465.000,337.750 Z" fill="none" stroke="#9BE7FF" stroke-width="1.00"/><path d="M 480.000,415.692 L 465.000,441.673 L 435.000,441.673 L 420.000,415.692 L 435.000,389.711 L 465.000,389.711 Z" fill="none" stroke="#9BE7FF" stroke-width="1.00"/><path d="M 480.000,467.654 L 465.000,493.634 L 435.000,493.634 L 420.000,467.654 L 435.000,441.673 L 465.000,441.673 Z" fill="none" stroke="#9BE7FF" stroke-width="1.00"/><path d="M 480.000,519.615 L 465.000,545.596 L 435.000,545.596 L 420.000,519.615 L 435.000,493.634 L 465.000,493.634 Z" fill="none" stroke="#9BE7FF" stroke-width="1.00"/><path d="M 480.000,571.577 L 465.000,597.558 L 435.000,597.558 L 420.000,571.577 L 435.000,545.596 L 465.000,545.596 Z" fill="none" stroke="#9BE7FF" stroke-width="1.00"/><path d="M 480.000,623.538 L 465.000,649.519 L 435.000,649.519 L 420.000,623.538 L 435.000,597.558 L 465.000,597.558 Z" fill="none" stroke="#9BE7FF" stroke-width="1.00"/><path d="M 480.000,675.500 L 465.000,701.481 L 435.000,701.481 L 420.000,675.500 L 435.000,649.519 L 465.000,649.519 Z" fill="none" stroke="#9BE7FF" stroke-width="1.00"/><path d="M 480.000,727.461 L 465.000,753.442 L 435.000,753.442 L 420.000,727.461 L 435.000,701.481 L 465.000,701.481 Z" fill="none" stroke="#9BE7FF" stroke-width="1.00"/><path d="M 480.000,779.423 L 465.000,805.404 L 435.000,805.404 L 420.000,779.423 L 435.000,753.442 L 465.000,753.442 Z" fill="none" stroke="#9BE7FF" stroke-width="1.00"/><path d="M 480.000,831.384 L 465.000,857.365 L 435.000,857.365 L 420.000,831.384 L 435.000,805.404 L 465.000,805.404 Z" fill="none" stroke="#9BE7FF" stroke-width="1.00"/><path d="M 480.000,883.346 L 465.000,909.327 L 435.000,909.327 L 420.000,883.346 L 435.000,857.365 L 465.000,857.365 Z" fill="none" stroke="#9BE7FF" stroke-width="1.00"/><path d="M 480.000,935.307 L 465.000,961.288 L 435.000,961.288 L 420.000,935.307 L 435.000,909.327 L 465.000,909.327 Z" fill="none" stroke="#9BE7FF" stroke-width="1.00"/><path d="M 480.000,987.269 L 465.000,1013.250 L 435.000,1013.250 L 420.000,987.269 L 435.000,961.288 L 465.000,961.288 Z" fill="none" stroke="#9BE7FF" stroke-width="1.00"/><path d="M 480.000,1039.230 L 465.000,1065.211 L 435.000,1065.211 L 420.000,1039.230 L 435.000,1013.250 L 465.000,1013.250 Z" fill="none" stroke="#9BE7FF" stroke-width="1.00"/><path d="M 525.000,-25.981 L 510.000,0.000 L 480.000,0.000 L 465.000,-25.981 L 480.000,-51.962 L 510.000,-51.962 Z" fill="none" stroke="#9BE7FF" stroke-width="1.00"/><path d="M 525.000,25.981 L 510.000,51.962 L 480.000,51.962 L 465.000,25.981 L 480.000,0.000 L 510.000,0.000 Z" fill="none" stroke="#9BE7FF" stroke-width="1.00"/><path d="M 525.000,77.942 L 510.000,103.923 L 480.000,103.923 L 465.000,77.942 L 480.000,51.962 L 510.000,51.962 Z" fill="none" stroke="#9BE7FF" stroke-width="1.00"/><path d="M 525.000,129.904 L 510.000,155.885 L 480.000,155.885 L 465.000,129.904 L 480.000,103.923 L 510.000,103.923 Z" fill="none" stroke="#9BE7FF" stroke-width="1.00"/><path d="M 525.000,181.865 L 510.000,207.846 L 480.000,207.846 L 465.000,181.865 L 480.000,155.885 L 510.000,155.885 Z" fill="none" stroke="#9BE7FF" stroke-width="1.00"/><path d="M 525.000,233.827 L 510.000,259.808 L 480.000,259.808 L 465.000,233.827 L 480.000,207.846 L 510.000,207.846 Z" fill="none" stroke="#9BE7FF" stroke-width="1.00"/><path d="M 525.000,285.788 L 510.000,311.769 L 480.000,311.769 L 465.000,285.788 L 480.000,259.808 L 510.000,259.808 Z" fill="none" stroke="#9BE7FF" stroke-width="1.00"/><path d="M 525.000,337.750 L 510.000,363.731 L 480.000,363.731 L 465.000,337.750 L 480.000,311.769 L 510.000,311.769 Z" fill="none" stroke="#9BE7FF" stroke-width="1.00"/><path d="M 525.000,389.711 L 510.000,415.692 L 480.000,415.692 L 465.000,389.711 L 480.000,363.731 L 510.000,363.731 Z" fill="none" stroke="#9BE7FF" stroke-width="1.00"/><path d="M 525.000,441.673 L 510.000,467.654 L 480.000,467.654 L 465.000,441.673 L 480.000,415.692 L 510.000,415.692 Z" fill="none" stroke="#9BE7FF" stroke-width="1.00"/><path d="M 525.000,493.634 L 510.000,519.615 L 480.000,519.615 L 465.000,493.634 L 480.000,467.654 L 510.000,467.654 Z" fill="none" stroke="#9BE7FF" stroke-width="1.00"/><path d="M 525.000,545.596 L 510.000,571.577 L 480.000,571.577 L 465.000,545.596 L 480.000,519.615 L 510.000,519.615 Z" fill="none" stroke="#9BE7FF" stroke-width="1.00"/><path d="M 525.000,597.558 L 510.000,623.538 L 480.000,623.538 L 465.000,597.558 L 480.000,571.577 L 510.000,571.577 Z" fill="none" stroke="#9BE7FF" stroke-width="1.00"/><path d="M 525.000,649.519 L 510.000,675.500 L 480.000,675.500 L 465.000,649.519 L 480.000,623.538 L 510.000,623.538 Z" fill="none" stroke="#9BE7FF" stroke-width="1.00"/><path d="M 525.000,701.481 L 510.000,727.461 L 480.000,727.461 L 465.000,701.481 L 480.000,675.500 L 510.000,675.500 Z" fill="none" stroke="#9BE7FF" stroke-width="1.00"/><path d="M 525.000,753.442 L 510.000,779.423 L 480.000,779.423 L 465.000,753.442 L 480.000,727.461 L 510.000,727.461 Z" fill="none" stroke="#9BE7FF" stroke-width="1.00"/><path d="M 525.000,805.404 L 510.000,831.384 L 480.000,831.384 L 465.000,805.404 L 480.000,779.423 L 510.000,779.423 Z" fill="none" stroke="#9BE7FF" stroke-width="1.00"/><path d="M 525.000,857.365 L 510.000,883.346 L 480.000,883.346 L 465.000,857.365 L 480.000,831.384 L 510.000,831.384 Z" fill="none" stroke="#9BE7FF" stroke-width="1.00"/><path d="M 525.000,909.327 L 510.000,935.307 L 480.000,935.307 L 465.000,909.327 L 480.000,883.346 L 510.000,883.346 Z" fill="none" stroke="#9BE7FF" stroke-width="1.00"/><path d="M 525.000,961.288 L 510.000,987.269 L 480.000,987.269 L 465.000,961.288 L 480.000,935.307 L 510.000,935.307 Z" fill="none" stroke="#9BE7FF" stroke-width="1.00"/><path d="M 525.000,1013.250 L 510.000,1039.230 L 480.000,1039.230 L 465.000,1013.250 L 480.000,987.269 L 510.000,987.269 Z" fill="none" stroke="#9BE7FF" stroke-width="1.00"/><path d="M 525.000,1065.211 L 510.000,1091.192 L 480.000,1091.192 L 465.000,1065.211 L 480.000,1039.230 L 510.000,1039.230 Z" fill="none" stroke="#9BE7FF" stroke-width="1.00"/><path d="M 570.000,-51.962 L 555.000,-25.981 L 525.000,-25.981 L 510.000,-51.962 L 525.000,-77.942 L 555.000,-77.942 Z" fill="none" stroke="#9BE7FF" stroke-width="1.00"/><path d="M 570.000,0.000 L 555.000,25.981 L 525.000,25.981 L 510.000,0.000 L 525.000,-25.981 L 555.000,-25.981 Z" fill="none" stroke="#9BE7FF" stroke-width="1.00"/><path d="M 570.000,51.962 L 555.000,77.942 L 525.000,77.942 L 510.000,51.962 L 525.000,25.981 L 555.000,25.981 Z" fill="none" stroke="#9BE7FF" stroke-width="1.00"/><path d="M 570.000,103.923 L 555.000,129.904 L 525.000,129.904 L 510.000,103.923 L 525.000,77.942 L 555.000,77.942 Z" fill="none" stroke="#9BE7FF" stroke-width="1.00"/><path d="M 570.000,155.885 L 555.000,181.865 L 525.000,181.865 L 510.000,155.885 L 525.000,129.904 L 555.000,129.904 Z" fill="none" stroke="#9BE7FF" stroke-width="1.00"/><path d="M 570.000,207.846 L 555.000,233.827 L 525.000,233.827 L 510.000,207.846 L 525.000,181.865 L 555.000,181.865 Z" fill="none" stroke="#9BE7FF" stroke-width="1.00"/><path d="M 570.000,259.808 L 555.000,285.788 L 525.000,285.788 L 510.000,259.808 L 525.000,233.827 L 555.000,233.827 Z" fill="none" stroke="#9BE7FF" stroke-width="1.00"/><path d="M 570.000,311.769 L 555.000,337.750 L 525.000,337.750 L 510.000,311.769 L 525.000,285.788 L 555.000,285.788 Z" fill="none" stroke="#9BE7FF" stroke-width="1.00"/><path d="M 570.000,363.731 L 555.000,389.711 L 525.000,389.711 L 510.000,363.731 L 525.000,337.750 L 555.000,337.750 Z" fill="none" stroke="#9BE7FF" stroke-width="1.00"/><path d="M 570.000,415.692 L 555.000,441.673 L 525.000,441.673 L 510.000,415.692 L 525.000,389.711 L 555.000,389.711 Z" fill="none" stroke="#9BE7FF" stroke-width="1.00"/><path d="M 570.000,467.654 L 555.000,493.634 L 525.000,493.634 L 510.000,467.654 L 525.000,441.673 L 555.000,441.673 Z" fill="none" stroke="#9BE7FF" stroke-width="1.00"/><path d="M 570.000,519.615 L 555.000,545.596 L 525.000,545.596 L 510.000,519.615 L 525.000,493.634 L 555.000,493.634 Z" fill="none" stroke="#9BE7FF" stroke-width="1.00"/><path d="M 570.000,571.577 L 555.000,597.558 L 525.000,597.558 L 510.000,571.577 L 525.000,545.596 L 555.000,545.596 Z" fill="none" stroke="#9BE7FF" stroke-width="1.00"/><path d="M 570.000,623.538 L 555.000,649.519 L 525.000,649.519 L 510.000,623.538 L 525.000,597.558 L 555.000,597.558 Z" fill="none" stroke="#9BE7FF" stroke-width="1.00"/><path d="M 570.000,675.500 L 555.000,701.481 L 525.000,701.481 L 510.000,675.500 L 525.000,649.519 L 555.000,649.519 Z" fill="none" stroke="#9BE7FF" stroke-width="1.00"/><path d="M 570.000,727.461 L 555.000,753.442 L 525.000,753.442 L 510.000,727.461 L 525.000,701.481 L 555.000,701.481 Z" fill="none" stroke="#9BE7FF" stroke-width="1.00"/><path d="M 570.000,779.423 L 555.000,805.404 L 525.000,805.404 L 510.000,779.423 L 525.000,753.442 L 555.000,753.442 Z" fill="none" stroke="#9BE7FF" stroke-width="1.00"/><path d="M 570.000,831.384 L 555.000,857.365 L 525.000,857.365 L 510.000,831.384 L 525.000,805.404 L 555.000,805.404 Z" fill="none" stroke="#9BE7FF" stroke-width="1.00"/><path d="M 570.000,883.346 L 555.000,909.327 L 525.000,909.327 L 510.000,883.346 L 525.000,857.365 L 555.000,857.365 Z" fill="none" stroke="#9BE7FF" stroke-width="1.00"/><path d="M 570.000,935.307 L 555.000,961.288 L 525.000,961.288 L 510.000,935.307 L 525.000,909.327 L 555.000,909.327 Z" fill="none" stroke="#9BE7FF" stroke-width="1.00"/><path d="M 570.000,987.269 L 555.000,1013.250 L 525.000,1013.250 L 510.000,987.269 L 525.000,961.288 L 555.000,961.288 Z" fill="none" stroke="#9BE7FF" stroke-width="1.00"/><path d="M 570.000,1039.230 L 555.000,1065.211 L 525.000,1065.211 L 510.000,1039.230 L 525.000,1013.250 L 555.000,1013.250 Z" fill="none" stroke="#9BE7FF" stroke-width="1.00"/><path d="M 615.000,-25.981 L 600.000,0.000 L 570.000,0.000 L 555.000,-25.981 L 570.000,-51.962 L 600.000,-51.962 Z" fill="none" stroke="#9BE7FF" stroke-width="1.00"/><path d="M 615.000,25.981 L 600.000,51.962 L 570.000,51.962 L 555.000,25.981 L 570.000,0.000 L 600.000,0.000 Z" fill="none" stroke="#9BE7FF" stroke-width="1.00"/><path d="M 615.000,77.942 L 600.000,103.923 L 570.000,103.923 L 555.000,77.942 L 570.000,51.962 L 600.000,51.962 Z" fill="none" stroke="#9BE7FF" stroke-width="1.00"/><path d="M 615.000,129.904 L 600.000,155.885 L 570.000,155.885 L 555.000,129.904 L 570.000,103.923 L 600.000,103.923 Z" fill="none" stroke="#9BE7FF" stroke-width="1.00"/><path d="M 615.000,181.865 L 600.000,207.846 L 570.000,207.846 L 555.000,181.865 L 570.000,155.885 L 600.000,155.885 Z" fill="none" stroke="#9BE7FF" stroke-width="1.00"/><path d="M 615.000,233.827 L 600.000,259.808 L 570.000,259.808 L 555.000,233.827 L 570.000,207.846 L 600.000,207.846 Z" fill="none" stroke="#9BE7FF" stroke-width="1.00"/><path d="M 615.000,285.788 L 600.000,311.769 L 570.000,311.769 L 555.000,285.788 L 570.000,259.808 L 600.000,259.808 Z" fill="none" stroke="#9BE7FF" stroke-width="1.00"/><path d="M 615.000,337.750 L 600.000,363.731 L 570.000,363.731 L 555.000,337.750 L 570.000,311.769 L 600.000,311.769 Z" fill="none" stroke="#9BE7FF" stroke-width="1.00"/><path d="M 615.000,389.711 L 600.000,415.692 L 570.000,415.692 L 555.000,389.711 L 570.000,363.731 L 600.000,363.731 Z" fill="none" stroke="#9BE7FF" stroke-width="1.00"/><path d="M 615.000,441.673 L 600.000,467.654 L 570.000,467.654 L 555.000,441.673 L 570.000,415.692 L 600.000,415.692 Z" fill="none" stroke="#9BE7FF" stroke-width="1.00"/><path d="M 615.000,493.634 L 600.000,519.615 L 570.000,519.615 L 555.000,493.634 L 570.000,467.654 L 600.000,467.654 Z" fill="none" stroke="#9BE7FF" stroke-width="1.00"/><path d="M 615.000,545.596 L 600.000,571.577 L 570.000,571.577 L 555.000,545.596 L 570.000,519.615 L 600.000,519.615 Z" fill="none" stroke="#9BE7FF" stroke-width="1.00"/><path d="M 615.000,597.558 L 600.000,623.538 L 570.000,623.538 L 555.000,597.558 L 570.000,571.577 L 600.000,571.577 Z" fill="none" stroke="#9BE7FF" stroke-width="1.00"/><path d="M 615.000,649.519 L 600.000,675.500 L 570.000,675.500 L 555.000,649.519 L 570.000,623.538 L 600.000,623.538 Z" fill="none" stroke="#9BE7FF" stroke-width="1.00"/><path d="M 615.000,701.481 L 600.000,727.461 L 570.000,727.461 L 555.000,701.481 L 570.000,675.500 L 600.000,675.500 Z" fill="none" stroke="#9BE7FF" stroke-width="1.00"/><path d="M 615.000,753.442 L 600.000,779.423 L 570.000,779.423 L 555.000,753.442 L 570.000,727.461 L 600.000,727.461 Z" fill="none" stroke="#9BE7FF" stroke-width="1.00"/><path d="M 615.000,805.404 L 600.000,831.384 L 570.000,831.384 L 555.000,805.404 L 570.000,779.423 L 600.000,779.423 Z" fill="none" stroke="#9BE7FF" stroke-width="1.00"/><path d="M 615.000,857.365 L 600.000,883.346 L 570.000,883.346 L 555.000,857.365 L 570.000,831.384 L 600.000,831.384 Z" fill="none" stroke="#9BE7FF" stroke-width="1.00"/><path d="M 615.000,909.327 L 600.000,935.307 L 570.000,935.307 L 555.000,909.327 L 570.000,883.346 L 600.000,883.346 Z" fill="none" stroke="#9BE7FF" stroke-width="1.00"/><path d="M 615.000,961.288 L 600.000,987.269 L 570.000,987.269 L 555.000,961.288 L 570.000,935.307 L 600.000,935.307 Z" fill="none" stroke="#9BE7FF" stroke-width="1.00"/><path d="M 615.000,1013.250 L 600.000,1039.230 L 570.000,1039.230 L 555.000,1013.250 L 570.000,987.269 L 600.000,987.269 Z" fill="none" stroke="#9BE7FF" stroke-width="1.00"/><path d="M 615.000,1065.211 L 600.000,1091.192 L 570.000,1091.192 L 555.000,1065.211 L 570.000,1039.230 L 600.000,1039.230 Z" fill="none" stroke="#9BE7FF" stroke-width="1.00"/><path d="M 660.000,-51.962 L 645.000,-25.981 L 615.000,-25.981 L 600.000,-51.962 L 615.000,-77.942 L 645.000,-77.942 Z" fill="none" stroke="#9BE7FF" stroke-width="1.00"/><path d="M 660.000,0.000 L 645.000,25.981 L 615.000,25.981 L 600.000,0.000 L 615.000,-25.981 L 645.000,-25.981 Z" fill="none" stroke="#9BE7FF" stroke-width="1.00"/><path d="M 660.000,51.962 L 645.000,77.942 L 615.000,77.942 L 600.000,51.962 L 615.000,25.981 L 645.000,25.981 Z" fill="none" stroke="#9BE7FF" stroke-width="1.00"/><path d="M 660.000,103.923 L 645.000,129.904 L 615.000,129.904 L 600.000,103.923 L 615.000,77.942 L 645.000,77.942 Z" fill="none" stroke="#9BE7FF" stroke-width="1.00"/><path d="M 660.000,155.885 L 645.000,181.865 L 615.000,181.865 L 600.000,155.885 L 615.000,129.904 L 645.000,129.904 Z" fill="none" stroke="#9BE7FF" stroke-width="1.00"/><path d="M 660.000,207.846 L 645.000,233.827 L 615.000,233.827 L 600.000,207.846 L 615.000,181.865 L 645.000,181.865 Z" fill="none" stroke="#9BE7FF" stroke-width="1.00"/><path d="M 660.000,259.808 L 645.000,285.788 L 615.000,285.788 L 600.000,259.808 L 615.000,233.827 L 645.000,233.827 Z" fill="none" stroke="#9BE7FF" stroke-width="1.00"/><path d="M 660.000,311.769 L 645.000,337.750 L 615.000,337.750 L 600.000,311.769 L 615.000,285.788 L 645.000,285.788 Z" fill="none" stroke="#9BE7FF" stroke-width="1.00"/><path d="M 660.000,363.731 L 645.000,389.711 L 615.000,389.711 L 600.000,363.731 L 615.000,337.750 L 645.000,337.750 Z" fill="none" stroke="#9BE7FF" stroke-width="1.00"/><path d="M 660.000,415.692 L 645.000,441.673 L 615.000,441.673 L 600.000,415.692 L 615.000,389.711 L 645.000,389.711 Z" fill="none" stroke="#9BE7FF" stroke-width="1.00"/><path d="M 660.000,467.654 L 645.000,493.634 L 615.000,493.634 L 600.000,467.654 L 615.000,441.673 L 645.000,441.673 Z" fill="none" stroke="#9BE7FF" stroke-width="1.00"/><path d="M 660.000,519.615 L 645.000,545.596 L 615.000,545.596 L 600.000,519.615 L 615.000,493.634 L 645.000,493.634 Z" fill="none" stroke="#9BE7FF" stroke-width="1.00"/><path d="M 660.000,571.577 L 645.000,597.558 L 615.000,597.558 L 600.000,571.577 L 615.000,545.596 L 645.000,545.596 Z" fill="none" stroke="#9BE7FF" stroke-width="1.00"/><path d="M 660.000,623.538 L 645.000,649.519 L 615.000,649.519 L 600.000,623.538 L 615.000,597.558 L 645.000,597.558 Z" fill="none" stroke="#9BE7FF" stroke-width="1.00"/><path d="M 660.000,675.500 L 645.000,701.481 L 615.000,701.481 L 600.000,675.500 L 615.000,649.519 L 645.000,649.519 Z" fill="none" stroke="#9BE7FF" stroke-width="1.00"/><path d="M 660.000,727.461 L 645.000,753.442 L 615.000,753.442 L 600.000,727.461 L 615.000,701.481 L 645.000,701.481 Z" fill="none" stroke="#9BE7FF" stroke-width="1.00"/><path d="M 660.000,779.423 L 645.000,805.404 L 615.000,805.404 L 600.000,779.423 L 615.000,753.442 L 645.000,753.442 Z" fill="none" stroke="#9BE7FF" stroke-width="1.00"/><path d="M 660.000,831.384 L 645.000,857.365 L 615.000,857.365 L 600.000,831.384 L 615.000,805.404 L 645.000,805.404 Z" fill="none" stroke="#9BE7FF" stroke-width="1.00"/><path d="M 660.000,883.346 L 645.000,909.327 L 615.000,909.327 L 600.000,883.346 L 615.000,857.365 L 645.000,857.365 Z" fill="none" stroke="#9BE7FF" stroke-width="1.00"/><path d="M 660.000,935.307 L 645.000,961.288 L 615.000,961.288 L 600.000,935.307 L 615.000,909.327 L 645.000,909.327 Z" fill="none" stroke="#9BE7FF" stroke-width="1.00"/><path d="M 660.000,987.269 L 645.000,1013.250 L 615.000,1013.250 L 600.000,987.269 L 615.000,961.288 L 645.000,961.288 Z" fill="none" stroke="#9BE7FF" stroke-width="1.00"/><path d="M 660.000,1039.230 L 645.000,1065.211 L 615.000,1065.211 L 600.000,1039.230 L 615.000,1013.250 L 645.000,1013.250 Z" fill="none" stroke="#9BE7FF" stroke-width="1.00"/><path d="M 705.000,-25.981 L 690.000,0.000 L 660.000,0.000 L 645.000,-25.981 L 660.000,-51.962 L 690.000,-51.962 Z" fill="none" stroke="#9BE7FF" stroke-width="1.00"/><path d="M 705.000,25.981 L 690.000,51.962 L 660.000,51.962 L 645.000,25.981 L 660.000,0.000 L 690.000,0.000 Z" fill="none" stroke="#9BE7FF" stroke-width="1.00"/><path d="M 705.000,77.942 L 690.000,103.923 L 660.000,103.923 L 645.000,77.942 L 660.000,51.962 L 690.000,51.962 Z" fill="none" stroke="#9BE7FF" stroke-width="1.00"/><path d="M 705.000,129.904 L 690.000,155.885 L 660.000,155.885 L 645.000,129.904 L 660.000,103.923 L 690.000,103.923 Z" fill="none" stroke="#9BE7FF" stroke-width="1.00"/><path d="M 705.000,181.865 L 690.000,207.846 L 660.000,207.846 L 645.000,181.865 L 660.000,155.885 L 690.000,155.885 Z" fill="none" stroke="#9BE7FF" stroke-width="1.00"/><path d="M 705.000,233.827 L 690.000,259.808 L 660.000,259.808 L 645.000,233.827 L 660.000,207.846 L 690.000,207.846 Z" fill="none" stroke="#9BE7FF" stroke-width="1.00"/><path d="M 705.000,285.788 L 690.000,311.769 L 660.000,311.769 L 645.000,285.788 L 660.000,259.808 L 690.000,259.808 Z" fill="none" stroke="#9BE7FF" stroke-width="1.00"/><path d="M 705.000,337.750 L 690.000,363.731 L 660.000,363.731 L 645.000,337.750 L 660.000,311.769 L 690.000,311.769 Z" fill="none" stroke="#9BE7FF" stroke-width="1.00"/><path d="M 705.000,389.711 L 690.000,415.692 L 660.000,415.692 L 645.000,389.711 L 660.000,363.731 L 690.000,363.731 Z" fill="none" stroke="#9BE7FF" stroke-width="1.00"/><path d="M 705.000,441.673 L 690.000,467.654 L 660.000,467.654 L 645.000,441.673 L 660.000,415.692 L 690.000,415.692 Z" fill="none" stroke="#9BE7FF" stroke-width="1.00"/><path d="M 705.000,493.634 L 690.000,519.615 L 660.000,519.615 L 645.000,493.634 L 660.000,467.654 L 690.000,467.654 Z" fill="none" stroke="#9BE7FF" stroke-width="1.00"/><path d="M 705.000,545.596 L 690.000,571.577 L 660.000,571.577 L 645.000,545.596 L 660.000,519.615 L 690.000,519.615 Z" fill="none" stroke="#9BE7FF" stroke-width="1.00"/><path d="M 705.000,597.558 L 690.000,623.538 L 660.000,623.538 L 645.000,597.558 L 660.000,571.577 L 690.000,571.577 Z" fill="none" stroke="#9BE7FF" stroke-width="1.00"/><path d="M 705.000,649.519 L 690.000,675.500 L 660.000,675.500 L 645.000,649.519 L 660.000,623.538 L 690.000,623.538 Z" fill="none" stroke="#9BE7FF" stroke-width="1.00"/><path d="M 705.000,701.481 L 690.000,727.461 L 660.000,727.461 L 645.000,701.481 L 660.000,675.500 L 690.000,675.500 Z" fill="none" stroke="#9BE7FF" stroke-width="1.00"/><path d="M 705.000,753.442 L 690.000,779.423 L 660.000,779.423 L 645.000,753.442 L 660.000,727.461 L 690.000,727.461 Z" fill="none" stroke="#9BE7FF" stroke-width="1.00"/><path d="M 705.000,805.404 L 690.000,831.384 L 660.000,831.384 L 645.000,805.404 L 660.000,779.423 L 690.000,779.423 Z" fill="none" stroke="#9BE7FF" stroke-width="1.00"/><path d="M 705.000,857.365 L 690.000,883.346 L 660.000,883.346 L 645.000,857.365 L 660.000,831.384 L 690.000,831.384 Z" fill="none" stroke="#9BE7FF" stroke-width="1.00"/><path d="M 705.000,909.327 L 690.000,935.307 L 660.000,935.307 L 645.000,909.327 L 660.000,883.346 L 690.000,883.346 Z" fill="none" stroke="#9BE7FF" stroke-width="1.00"/><path d="M 705.000,961.288 L 690.000,987.269 L 660.000,987.269 L 645.000,961.288 L 660.000,935.307 L 690.000,935.307 Z" fill="none" stroke="#9BE7FF" stroke-width="1.00"/><path d="M 705.000,1013.250 L 690.000,1039.230 L 660.000,1039.230 L 645.000,1013.250 L 660.000,987.269 L 690.000,987.269 Z" fill="none" stroke="#9BE7FF" stroke-width="1.00"/><path d="M 705.000,1065.211 L 690.000,1091.192 L 660.000,1091.192 L 645.000,1065.211 L 660.000,1039.230 L 690.000,1039.230 Z" fill="none" stroke="#9BE7FF" stroke-width="1.00"/><path d="M 750.000,-51.962 L 735.000,-25.981 L 705.000,-25.981 L 690.000,-51.962 L 705.000,-77.942 L 735.000,-77.942 Z" fill="none" stroke="#9BE7FF" stroke-width="1.00"/><path d="M 750.000,0.000 L 735.000,25.981 L 705.000,25.981 L 690.000,0.000 L 705.000,-25.981 L 735.000,-25.981 Z" fill="none" stroke="#9BE7FF" stroke-width="1.00"/><path d="M 750.000,51.962 L 735.000,77.942 L 705.000,77.942 L 690.000,51.962 L 705.000,25.981 L 735.000,25.981 Z" fill="none" stroke="#9BE7FF" stroke-width="1.00"/><path d="M 750.000,103.923 L 735.000,129.904 L 705.000,129.904 L 690.000,103.923 L 705.000,77.942 L 735.000,77.942 Z" fill="none" stroke="#9BE7FF" stroke-width="1.00"/><path d="M 750.000,155.885 L 735.000,181.865 L 705.000,181.865 L 690.000,155.885 L 705.000,129.904 L 735.000,129.904 Z" fill="none" stroke="#9BE7FF" stroke-width="1.00"/><path d="M 750.000,207.846 L 735.000,233.827 L 705.000,233.827 L 690.000,207.846 L 705.000,181.865 L 735.000,181.865 Z" fill="none" stroke="#9BE7FF" stroke-width="1.00"/><path d="M 750.000,259.808 L 735.000,285.788 L 705.000,285.788 L 690.000,259.808 L 705.000,233.827 L 735.000,233.827 Z" fill="none" stroke="#9BE7FF" stroke-width="1.00"/><path d="M 750.000,311.769 L 735.000,337.750 L 705.000,337.750 L 690.000,311.769 L 705.000,285.788 L 735.000,285.788 Z" fill="none" stroke="#9BE7FF" stroke-width="1.00"/><path d="M 750.000,363.731 L 735.000,389.711 L 705.000,389.711 L 690.000,363.731 L 705.000,337.750 L 735.000,337.750 Z" fill="none" stroke="#9BE7FF" stroke-width="1.00"/><path d="M 750.000,415.692 L 735.000,441.673 L 705.000,441.673 L 690.000,415.692 L 705.000,389.711 L 735.000,389.711 Z" fill="none" stroke="#9BE7FF" stroke-width="1.00"/><path d="M 750.000,467.654 L 735.000,493.634 L 705.000,493.634 L 690.000,467.654 L 705.000,441.673 L 735.000,441.673 Z" fill="none" stroke="#9BE7FF" stroke-width="1.00"/><path d="M 750.000,519.615 L 735.000,545.596 L 705.000,545.596 L 690.000,519.615 L 705.000,493.634 L 735.000,493.634 Z" fill="none" stroke="#9BE7FF" stroke-width="1.00"/><path d="M 750.000,571.577 L 735.000,597.558 L 705.000,597.558 L 690.000,571.577 L 705.000,545.596 L 735.000,545.596 Z" fill="none" stroke="#9BE7FF" stroke-width="1.00"/><path d="M 750.000,623.538 L 735.000,649.519 L 705.000,649.519 L 690.000,623.538 L 705.000,597.558 L 735.000,597.558 Z" fill="none" stroke="#9BE7FF" stroke-width="1.00"/><path d="M 750.000,675.500 L 735.000,701.481 L 705.000,701.481 L 690.000,675.500 L 705.000,649.519 L 735.000,649.519 Z" fill="none" stroke="#9BE7FF" stroke-width="1.00"/><path d="M 750.000,727.461 L 735.000,753.442 L 705.000,753.442 L 690.000,727.461 L 705.000,701.481 L 735.000,701.481 Z" fill="none" stroke="#9BE7FF" stroke-width="1.00"/><path d="M 750.000,779.423 L 735.000,805.404 L 705.000,805.404 L 690.000,779.423 L 705.000,753.442 L 735.000,753.442 Z" fill="none" stroke="#9BE7FF" stroke-width="1.00"/><path d="M 750.000,831.384 L 735.000,857.365 L 705.000,857.365 L 690.000,831.384 L 705.000,805.404 L 735.000,805.404 Z" fill="none" stroke="#9BE7FF" stroke-width="1.00"/><path d="M 750.000,883.346 L 735.000,909.327 L 705.000,909.327 L 690.000,883.346 L 705.000,857.365 L 735.000,857.365 Z" fill="none" stroke="#9BE7FF" stroke-width="1.00"/><path d="M 750.000,935.307 L 735.000,961.288 L 705.000,961.288 L 690.000,935.307 L 705.000,909.327 L 735.000,909.327 Z" fill="none" stroke="#9BE7FF" stroke-width="1.00"/><path d="M 750.000,987.269 L 735.000,1013.250 L 705.000,1013.250 L 690.000,987.269 L 705.000,961.288 L 735.000,961.288 Z" fill="none" stroke="#9BE7FF" stroke-width="1.00"/><path d="M 750.000,1039.230 L 735.000,1065.211 L 705.000,1065.211 L 690.000,1039.230 L 705.000,1013.250 L 735.000,1013.250 Z" fill="none" stroke="#9BE7FF" stroke-width="1.00"/><path d="M 795.000,-25.981 L 780.000,0.000 L 750.000,0.000 L 735.000,-25.981 L 750.000,-51.962 L 780.000,-51.962 Z" fill="none" stroke="#9BE7FF" stroke-width="1.00"/><path d="M 795.000,25.981 L 780.000,51.962 L 750.000,51.962 L 735.000,25.981 L 750.000,0.000 L 780.000,0.000 Z" fill="none" stroke="#9BE7FF" stroke-width="1.00"/><path d="M 795.000,77.942 L 780.000,103.923 L 750.000,103.923 L 735.000,77.942 L 750.000,51.962 L 780.000,51.962 Z" fill="none" stroke="#9BE7FF" stroke-width="1.00"/><path d="M 795.000,129.904 L 780.000,155.885 L 750.000,155.885 L 735.000,129.904 L 750.000,103.923 L 780.000,103.923 Z" fill="none" stroke="#9BE7FF" stroke-width="1.00"/><path d="M 795.000,181.865 L 780.000,207.846 L 750.000,207.846 L 735.000,181.865 L 750.000,155.885 L 780.000,155.885 Z" fill="none" stroke="#9BE7FF" stroke-width="1.00"/><path d="M 795.000,233.827 L 780.000,259.808 L 750.000,259.808 L 735.000,233.827 L 750.000,207.846 L 780.000,207.846 Z" fill="none" stroke="#9BE7FF" stroke-width="1.00"/><path d="M 795.000,285.788 L 780.000,311.769 L 750.000,311.769 L 735.000,285.788 L 750.000,259.808 L 780.000,259.808 Z" fill="none" stroke="#9BE7FF" stroke-width="1.00"/><path d="M 795.000,337.750 L 780.000,363.731 L 750.000,363.731 L 735.000,337.750 L 750.000,311.769 L 780.000,311.769 Z" fill="none" stroke="#9BE7FF" stroke-width="1.00"/><path d="M 795.000,389.711 L 780.000,415.692 L 750.000,415.692 L 735.000,389.711 L 750.000,363.731 L 780.000,363.731 Z" fill="none" stroke="#9BE7FF" stroke-width="1.00"/><path d="M 795.000,441.673 L 780.000,467.654 L 750.000,467.654 L 735.000,441.673 L 750.000,415.692 L 780.000,415.692 Z" fill="none" stroke="#9BE7FF" stroke-width="1.00"/><path d="M 795.000,493.634 L 780.000,519.615 L 750.000,519.615 L 735.000,493.634 L 750.000,467.654 L 780.000,467.654 Z" fill="none" stroke="#9BE7FF" stroke-width="1.00"/><path d="M 795.000,545.596 L 780.000,571.577 L 750.000,571.577 L 735.000,545.596 L 750.000,519.615 L 780.000,519.615 Z" fill="none" stroke="#9BE7FF" stroke-width="1.00"/><path d="M 795.000,597.558 L 780.000,623.538 L 750.000,623.538 L 735.000,597.558 L 750.000,571.577 L 780.000,571.577 Z" fill="none" stroke="#9BE7FF" stroke-width="1.00"/><path d="M 795.000,649.519 L 780.000,675.500 L 750.000,675.500 L 735.000,649.519 L 750.000,623.538 L 780.000,623.538 Z" fill="none" stroke="#9BE7FF" stroke-width="1.00"/><path d="M 795.000,701.481 L 780.000,727.461 L 750.000,727.461 L 735.000,701.481 L 750.000,675.500 L 780.000,675.500 Z" fill="none" stroke="#9BE7FF" stroke-width="1.00"/><path d="M 795.000,753.442 L 780.000,779.423 L 750.000,779.423 L 735.000,753.442 L 750.000,727.461 L 780.000,727.461 Z" fill="none" stroke="#9BE7FF" stroke-width="1.00"/><path d="M 795.000,805.404 L 780.000,831.384 L 750.000,831.384 L 735.000,805.404 L 750.000,779.423 L 780.000,779.423 Z" fill="none" stroke="#9BE7FF" stroke-width="1.00"/><path d="M 795.000,857.365 L 780.000,883.346 L 750.000,883.346 L 735.000,857.365 L 750.000,831.384 L 780.000,831.384 Z" fill="none" stroke="#9BE7FF" stroke-width="1.00"/><path d="M 795.000,909.327 L 780.000,935.307 L 750.000,935.307 L 735.000,909.327 L 750.000,883.346 L 780.000,883.346 Z" fill="none" stroke="#9BE7FF" stroke-width="1.00"/><path d="M 795.000,961.288 L 780.000,987.269 L 750.000,987.269 L 735.000,961.288 L 750.000,935.307 L 780.000,935.307 Z" fill="none" stroke="#9BE7FF" stroke-width="1.00"/><path d="M 795.000,1013.250 L 780.000,1039.230 L 750.000,1039.230 L 735.000,1013.250 L 750.000,987.269 L 780.000,987.269 Z" fill="none" stroke="#9BE7FF" stroke-width="1.00"/><path d="M 795.000,1065.211 L 780.000,1091.192 L 750.000,1091.192 L 735.000,1065.211 L 750.000,1039.230 L 780.000,1039.230 Z" fill="none" stroke="#9BE7FF" stroke-width="1.00"/><path d="M 840.000,-51.962 L 825.000,-25.981 L 795.000,-25.981 L 780.000,-51.962 L 795.000,-77.942 L 825.000,-77.942 Z" fill="none" stroke="#9BE7FF" stroke-width="1.00"/><path d="M 840.000,0.000 L 825.000,25.981 L 795.000,25.981 L 780.000,0.000 L 795.000,-25.981 L 825.000,-25.981 Z" fill="none" stroke="#9BE7FF" stroke-width="1.00"/><path d="M 840.000,51.962 L 825.000,77.942 L 795.000,77.942 L 780.000,51.962 L 795.000,25.981 L 825.000,25.981 Z" fill="none" stroke="#9BE7FF" stroke-width="1.00"/><path d="M 840.000,103.923 L 825.000,129.904 L 795.000,129.904 L 780.000,103.923 L 795.000,77.942 L 825.000,77.942 Z" fill="none" stroke="#9BE7FF" stroke-width="1.00"/><path d="M 840.000,155.885 L 825.000,181.865 L 795.000,181.865 L 780.000,155.885 L 795.000,129.904 L 825.000,129.904 Z" fill="none" stroke="#9BE7FF" stroke-width="1.00"/><path d="M 840.000,207.846 L 825.000,233.827 L 795.000,233.827 L 780.000,207.846 L 795.000,181.865 L 825.000,181.865 Z" fill="none" stroke="#9BE7FF" stroke-width="1.00"/><path d="M 840.000,259.808 L 825.000,285.788 L 795.000,285.788 L 780.000,259.808 L 795.000,233.827 L 825.000,233.827 Z" fill="none" stroke="#9BE7FF" stroke-width="1.00"/><path d="M 840.000,311.769 L 825.000,337.750 L 795.000,337.750 L 780.000,311.769 L 795.000,285.788 L 825.000,285.788 Z" fill="none" stroke="#9BE7FF" stroke-width="1.00"/><path d="M 840.000,363.731 L 825.000,389.711 L 795.000,389.711 L 780.000,363.731 L 795.000,337.750 L 825.000,337.750 Z" fill="none" stroke="#9BE7FF" stroke-width="1.00"/><path d="M 840.000,415.692 L 825.000,441.673 L 795.000,441.673 L 780.000,415.692 L 795.000,389.711 L 825.000,389.711 Z" fill="none" stroke="#9BE7FF" stroke-width="1.00"/><path d="M 840.000,467.654 L 825.000,493.634 L 795.000,493.634 L 780.000,467.654 L 795.000,441.673 L 825.000,441.673 Z" fill="none" stroke="#9BE7FF" stroke-width="1.00"/><path d="M 840.000,519.615 L 825.000,545.596 L 795.000,545.596 L 780.000,519.615 L 795.000,493.634 L 825.000,493.634 Z" fill="none" stroke="#9BE7FF" stroke-width="1.00"/><path d="M 840.000,571.577 L 825.000,597.558 L 795.000,597.558 L 780.000,571.577 L 795.000,545.596 L 825.000,545.596 Z" fill="none" stroke="#9BE7FF" stroke-width="1.00"/><path d="M 840.000,623.538 L 825.000,649.519 L 795.000,649.519 L 780.000,623.538 L 795.000,597.558 L 825.000,597.558 Z" fill="none" stroke="#9BE7FF" stroke-width="1.00"/><path d="M 840.000,675.500 L 825.000,701.481 L 795.000,701.481 L 780.000,675.500 L 795.000,649.519 L 825.000,649.519 Z" fill="none" stroke="#9BE7FF" stroke-width="1.00"/><path d="M 840.000,727.461 L 825.000,753.442 L 795.000,753.442 L 780.000,727.461 L 795.000,701.481 L 825.000,701.481 Z" fill="none" stroke="#9BE7FF" stroke-width="1.00"/><path d="M 840.000,779.423 L 825.000,805.404 L 795.000,805.404 L 780.000,779.423 L 795.000,753.442 L 825.000,753.442 Z" fill="none" stroke="#9BE7FF" stroke-width="1.00"/><path d="M 840.000,831.384 L 825.000,857.365 L 795.000,857.365 L 780.000,831.384 L 795.000,805.404 L 825.000,805.404 Z" fill="none" stroke="#9BE7FF" stroke-width="1.00"/><path d="M 840.000,883.346 L 825.000,909.327 L 795.000,909.327 L 780.000,883.346 L 795.000,857.365 L 825.000,857.365 Z" fill="none" stroke="#9BE7FF" stroke-width="1.00"/><path d="M 840.000,935.307 L 825.000,961.288 L 795.000,961.288 L 780.000,935.307 L 795.000,909.327 L 825.000,909.327 Z" fill="none" stroke="#9BE7FF" stroke-width="1.00"/><path d="M 840.000,987.269 L 825.000,1013.250 L 795.000,1013.250 L 780.000,987.269 L 795.000,961.288 L 825.000,961.288 Z" fill="none" stroke="#9BE7FF" stroke-width="1.00"/><path d="M 840.000,1039.230 L 825.000,1065.211 L 795.000,1065.211 L 780.000,1039.230 L 795.000,1013.250 L 825.000,1013.250 Z" fill="none" stroke="#9BE7FF" stroke-width="1.00"/><path d="M 885.000,-25.981 L 870.000,0.000 L 840.000,0.000 L 825.000,-25.981 L 840.000,-51.962 L 870.000,-51.962 Z" fill="none" stroke="#9BE7FF" stroke-width="1.00"/><path d="M 885.000,25.981 L 870.000,51.962 L 840.000,51.962 L 825.000,25.981 L 840.000,0.000 L 870.000,0.000 Z" fill="none" stroke="#9BE7FF" stroke-width="1.00"/><path d="M 885.000,77.942 L 870.000,103.923 L 840.000,103.923 L 825.000,77.942 L 840.000,51.962 L 870.000,51.962 Z" fill="none" stroke="#9BE7FF" stroke-width="1.00"/><path d="M 885.000,129.904 L 870.000,155.885 L 840.000,155.885 L 825.000,129.904 L 840.000,103.923 L 870.000,103.923 Z" fill="none" stroke="#9BE7FF" stroke-width="1.00"/><path d="M 885.000,181.865 L 870.000,207.846 L 840.000,207.846 L 825.000,181.865 L 840.000,155.885 L 870.000,155.885 Z" fill="none" stroke="#9BE7FF" stroke-width="1.00"/><path d="M 885.000,233.827 L 870.000,259.808 L 840.000,259.808 L 825.000,233.827 L 840.000,207.846 L 870.000,207.846 Z" fill="none" stroke="#9BE7FF" stroke-width="1.00"/><path d="M 885.000,285.788 L 870.000,311.769 L 840.000,311.769 L 825.000,285.788 L 840.000,259.808 L 870.000,259.808 Z" fill="none" stroke="#9BE7FF" stroke-width="1.00"/><path d="M 885.000,337.750 L 870.000,363.731 L 840.000,363.731 L 825.000,337.750 L 840.000,311.769 L 870.000,311.769 Z" fill="none" stroke="#9BE7FF" stroke-width="1.00"/><path d="M 885.000,389.711 L 870.000,415.692 L 840.000,415.692 L 825.000,389.711 L 840.000,363.731 L 870.000,363.731 Z" fill="none" stroke="#9BE7FF" stroke-width="1.00"/><path d="M 885.000,441.673 L 870.000,467.654 L 840.000,467.654 L 825.000,441.673 L 840.000,415.692 L 870.000,415.692 Z" fill="none" stroke="#9BE7FF" stroke-width="1.00"/><path d="M 885.000,493.634 L 870.000,519.615 L 840.000,519.615 L 825.000,493.634 L 840.000,467.654 L 870.000,467.654 Z" fill="none" stroke="#9BE7FF" stroke-width="1.00"/><path d="M 885.000,545.596 L 870.000,571.577 L 840.000,571.577 L 825.000,545.596 L 840.000,519.615 L 870.000,519.615 Z" fill="none" stroke="#9BE7FF" stroke-width="1.00"/><path d="M 885.000,597.558 L 870.000,623.538 L 840.000,623.538 L 825.000,597.558 L 840.000,571.577 L 870.000,571.577 Z" fill="none" stroke="#9BE7FF" stroke-width="1.00"/><path d="M 885.000,649.519 L 870.000,675.500 L 840.000,675.500 L 825.000,649.519 L 840.000,623.538 L 870.000,623.538 Z" fill="none" stroke="#9BE7FF" stroke-width="1.00"/><path d="M 885.000,701.481 L 870.000,727.461 L 840.000,727.461 L 825.000,701.481 L 840.000,675.500 L 870.000,675.500 Z" fill="none" stroke="#9BE7FF" stroke-width="1.00"/><path d="M 885.000,753.442 L 870.000,779.423 L 840.000,779.423 L 825.000,753.442 L 840.000,727.461 L 870.000,727.461 Z" fill="none" stroke="#9BE7FF" stroke-width="1.00"/><path d="M 885.000,805.404 L 870.000,831.384 L 840.000,831.384 L 825.000,805.404 L 840.000,779.423 L 870.000,779.423 Z" fill="none" stroke="#9BE7FF" stroke-width="1.00"/><path d="M 885.000,857.365 L 870.000,883.346 L 840.000,883.346 L 825.000,857.365 L 840.000,831.384 L 870.000,831.384 Z" fill="none" stroke="#9BE7FF" stroke-width="1.00"/><path d="M 885.000,909.327 L 870.000,935.307 L 840.000,935.307 L 825.000,909.327 L 840.000,883.346 L 870.000,883.346 Z" fill="none" stroke="#9BE7FF" stroke-width="1.00"/><path d="M 885.000,961.288 L 870.000,987.269 L 840.000,987.269 L 825.000,961.288 L 840.000,935.307 L 870.000,935.307 Z" fill="none" stroke="#9BE7FF" stroke-width="1.00"/><path d="M 885.000,1013.250 L 870.000,1039.230 L 840.000,1039.230 L 825.000,1013.250 L 840.000,987.269 L 870.000,987.269 Z" fill="none" stroke="#9BE7FF" stroke-width="1.00"/><path d="M 885.000,1065.211 L 870.000,1091.192 L 840.000,1091.192 L 825.000,1065.211 L 840.000,1039.230 L 870.000,1039.230 Z" fill="none" stroke="#9BE7FF" stroke-width="1.00"/><path d="M 930.000,-51.962 L 915.000,-25.981 L 885.000,-25.981 L 870.000,-51.962 L 885.000,-77.942 L 915.000,-77.942 Z" fill="none" stroke="#9BE7FF" stroke-width="1.00"/><path d="M 930.000,0.000 L 915.000,25.981 L 885.000,25.981 L 870.000,0.000 L 885.000,-25.981 L 915.000,-25.981 Z" fill="none" stroke="#9BE7FF" stroke-width="1.00"/><path d="M 930.000,51.962 L 915.000,77.942 L 885.000,77.942 L 870.000,51.962 L 885.000,25.981 L 915.000,25.981 Z" fill="none" stroke="#9BE7FF" stroke-width="1.00"/><path d="M 930.000,103.923 L 915.000,129.904 L 885.000,129.904 L 870.000,103.923 L 885.000,77.942 L 915.000,77.942 Z" fill="none" stroke="#9BE7FF" stroke-width="1.00"/><path d="M 930.000,155.885 L 915.000,181.865 L 885.000,181.865 L 870.000,155.885 L 885.000,129.904 L 915.000,129.904 Z" fill="none" stroke="#9BE7FF" stroke-width="1.00"/><path d="M 930.000,207.846 L 915.000,233.827 L 885.000,233.827 L 870.000,207.846 L 885.000,181.865 L 915.000,181.865 Z" fill="none" stroke="#9BE7FF" stroke-width="1.00"/><path d="M 930.000,259.808 L 915.000,285.788 L 885.000,285.788 L 870.000,259.808 L 885.000,233.827 L 915.000,233.827 Z" fill="none" stroke="#9BE7FF" stroke-width="1.00"/><path d="M 930.000,311.769 L 915.000,337.750 L 885.000,337.750 L 870.000,311.769 L 885.000,285.788 L 915.000,285.788 Z" fill="none" stroke="#9BE7FF" stroke-width="1.00"/><path d="M 930.000,363.731 L 915.000,389.711 L 885.000,389.711 L 870.000,363.731 L 885.000,337.750 L 915.000,337.750 Z" fill="none" stroke="#9BE7FF" stroke-width="1.00"/><path d="M 930.000,415.692 L 915.000,441.673 L 885.000,441.673 L 870.000,415.692 L 885.000,389.711 L 915.000,389.711 Z" fill="none" stroke="#9BE7FF" stroke-width="1.00"/><path d="M 930.000,467.654 L 915.000,493.634 L 885.000,493.634 L 870.000,467.654 L 885.000,441.673 L 915.000,441.673 Z" fill="none" stroke="#9BE7FF" stroke-width="1.00"/><path d="M 930.000,519.615 L 915.000,545.596 L 885.000,545.596 L 870.000,519.615 L 885.000,493.634 L 915.000,493.634 Z" fill="none" stroke="#9BE7FF" stroke-width="1.00"/><path d="M 930.000,571.577 L 915.000,597.558 L 885.000,597.558 L 870.000,571.577 L 885.000,545.596 L 915.000,545.596 Z" fill="none" stroke="#9BE7FF" stroke-width="1.00"/><path d="M 930.000,623.538 L 915.000,649.519 L 885.000,649.519 L 870.000,623.538 L 885.000,597.558 L 915.000,597.558 Z" fill="none" stroke="#9BE7FF" stroke-width="1.00"/><path d="M 930.000,675.500 L 915.000,701.481 L 885.000,701.481 L 870.000,675.500 L 885.000,649.519 L 915.000,649.519 Z" fill="none" stroke="#9BE7FF" stroke-width="1.00"/><path d="M 930.000,727.461 L 915.000,753.442 L 885.000,753.442 L 870.000,727.461 L 885.000,701.481 L 915.000,701.481 Z" fill="none" stroke="#9BE7FF" stroke-width="1.00"/><path d="M 930.000,779.423 L 915.000,805.404 L 885.000,805.404 L 870.000,779.423 L 885.000,753.442 L 915.000,753.442 Z" fill="none" stroke="#9BE7FF" stroke-width="1.00"/><path d="M 930.000,831.384 L 915.000,857.365 L 885.000,857.365 L 870.000,831.384 L 885.000,805.404 L 915.000,805.404 Z" fill="none" stroke="#9BE7FF" stroke-width="1.00"/><path d="M 930.000,883.346 L 915.000,909.327 L 885.000,909.327 L 870.000,883.346 L 885.000,857.365 L 915.000,857.365 Z" fill="none" stroke="#9BE7FF" stroke-width="1.00"/><path d="M 930.000,935.307 L 915.000,961.288 L 885.000,961.288 L 870.000,935.307 L 885.000,909.327 L 915.000,909.327 Z" fill="none" stroke="#9BE7FF" stroke-width="1.00"/><path d="M 930.000,987.269 L 915.000,1013.250 L 885.000,1013.250 L 870.000,987.269 L 885.000,961.288 L 915.000,961.288 Z" fill="none" stroke="#9BE7FF" stroke-width="1.00"/><path d="M 930.000,1039.230 L 915.000,1065.211 L 885.000,1065.211 L 870.000,1039.230 L 885.000,1013.250 L 915.000,1013.250 Z" fill="none" stroke="#9BE7FF" stroke-width="1.00"/><path d="M 975.000,-25.981 L 960.000,0.000 L 930.000,0.000 L 915.000,-25.981 L 930.000,-51.962 L 960.000,-51.962 Z" fill="none" stroke="#9BE7FF" stroke-width="1.00"/><path d="M 975.000,25.981 L 960.000,51.962 L 930.000,51.962 L 915.000,25.981 L 930.000,0.000 L 960.000,0.000 Z" fill="none" stroke="#9BE7FF" stroke-width="1.00"/><path d="M 975.000,77.942 L 960.000,103.923 L 930.000,103.923 L 915.000,77.942 L 930.000,51.962 L 960.000,51.962 Z" fill="none" stroke="#9BE7FF" stroke-width="1.00"/><path d="M 975.000,129.904 L 960.000,155.885 L 930.000,155.885 L 915.000,129.904 L 930.000,103.923 L 960.000,103.923 Z" fill="none" stroke="#9BE7FF" stroke-width="1.00"/><path d="M 975.000,181.865 L 960.000,207.846 L 930.000,207.846 L 915.000,181.865 L 930.000,155.885 L 960.000,155.885 Z" fill="none" stroke="#9BE7FF" stroke-width="1.00"/><path d="M 975.000,233.827 L 960.000,259.808 L 930.000,259.808 L 915.000,233.827 L 930.000,207.846 L 960.000,207.846 Z" fill="none" stroke="#9BE7FF" stroke-width="1.00"/><path d="M 975.000,285.788 L 960.000,311.769 L 930.000,311.769 L 915.000,285.788 L 930.000,259.808 L 960.000,259.808 Z" fill="none" stroke="#9BE7FF" stroke-width="1.00"/><path d="M 975.000,337.750 L 960.000,363.731 L 930.000,363.731 L 915.000,337.750 L 930.000,311.769 L 960.000,311.769 Z" fill="none" stroke="#9BE7FF" stroke-width="1.00"/><path d="M 975.000,389.711 L 960.000,415.692 L 930.000,415.692 L 915.000,389.711 L 930.000,363.731 L 960.000,363.731 Z" fill="none" stroke="#9BE7FF" stroke-width="1.00"/><path d="M 975.000,441.673 L 960.000,467.654 L 930.000,467.654 L 915.000,441.673 L 930.000,415.692 L 960.000,415.692 Z" fill="none" stroke="#9BE7FF" stroke-width="1.00"/><path d="M 975.000,493.634 L 960.000,519.615 L 930.000,519.615 L 915.000,493.634 L 930.000,467.654 L 960.000,467.654 Z" fill="none" stroke="#9BE7FF" stroke-width="1.00"/><path d="M 975.000,545.596 L 960.000,571.577 L 930.000,571.577 L 915.000,545.596 L 930.000,519.615 L 960.000,519.615 Z" fill="none" stroke="#9BE7FF" stroke-width="1.00"/><path d="M 975.000,597.558 L 960.000,623.538 L 930.000,623.538 L 915.000,597.558 L 930.000,571.577 L 960.000,571.577 Z" fill="none" stroke="#9BE7FF" stroke-width="1.00"/><path d="M 975.000,649.519 L 960.000,675.500 L 930.000,675.500 L 915.000,649.519 L 930.000,623.538 L 960.000,623.538 Z" fill="none" stroke="#9BE7FF" stroke-width="1.00"/><path d="M 975.000,701.481 L 960.000,727.461 L 930.000,727.461 L 915.000,701.481 L 930.000,675.500 L 960.000,675.500 Z" fill="none" stroke="#9BE7FF" stroke-width="1.00"/><path d="M 975.000,753.442 L 960.000,779.423 L 930.000,779.423 L 915.000,753.442 L 930.000,727.461 L 960.000,727.461 Z" fill="none" stroke="#9BE7FF" stroke-width="1.00"/><path d="M 975.000,805.404 L 960.000,831.384 L 930.000,831.384 L 915.000,805.404 L 930.000,779.423 L 960.000,779.423 Z" fill="none" stroke="#9BE7FF" stroke-width="1.00"/><path d="M 975.000,857.365 L 960.000,883.346 L 930.000,883.346 L 915.000,857.365 L 930.000,831.384 L 960.000,831.384 Z" fill="none" stroke="#9BE7FF" stroke-width="1.00"/><path d="M 975.000,909.327 L 960.000,935.307 L 930.000,935.307 L 915.000,909.327 L 930.000,883.346 L 960.000,883.346 Z" fill="none" stroke="#9BE7FF" stroke-width="1.00"/><path d="M 975.000,961.288 L 960.000,987.269 L 930.000,987.269 L 915.000,961.288 L 930.000,935.307 L 960.000,935.307 Z" fill="none" stroke="#9BE7FF" stroke-width="1.00"/><path d="M 975.000,1013.250 L 960.000,1039.230 L 930.000,1039.230 L 915.000,1013.250 L 930.000,987.269 L 960.000,987.269 Z" fill="none" stroke="#9BE7FF" stroke-width="1.00"/><path d="M 975.000,1065.211 L 960.000,1091.192 L 930.000,1091.192 L 915.000,1065.211 L 930.000,1039.230 L 960.000,1039.230 Z" fill="none" stroke="#9BE7FF" stroke-width="1.00"/><path d="M 1020.000,-51.962 L 1005.000,-25.981 L 975.000,-25.981 L 960.000,-51.962 L 975.000,-77.942 L 1005.000,-77.942 Z" fill="none" stroke="#9BE7FF" stroke-width="1.00"/><path d="M 1020.000,0.000 L 1005.000,25.981 L 975.000,25.981 L 960.000,0.000 L 975.000,-25.981 L 1005.000,-25.981 Z" fill="none" stroke="#9BE7FF" stroke-width="1.00"/><path d="M 1020.000,51.962 L 1005.000,77.942 L 975.000,77.942 L 960.000,51.962 L 975.000,25.981 L 1005.000,25.981 Z" fill="none" stroke="#9BE7FF" stroke-width="1.00"/><path d="M 1020.000,103.923 L 1005.000,129.904 L 975.000,129.904 L 960.000,103.923 L 975.000,77.942 L 1005.000,77.942 Z" fill="none" stroke="#9BE7FF" stroke-width="1.00"/><path d="M 1020.000,155.885 L 1005.000,181.865 L 975.000,181.865 L 960.000,155.885 L 975.000,129.904 L 1005.000,129.904 Z" fill="none" stroke="#9BE7FF" stroke-width="1.00"/><path d="M 1020.000,207.846 L 1005.000,233.827 L 975.000,233.827 L 960.000,207.846 L 975.000,181.865 L 1005.000,181.865 Z" fill="none" stroke="#9BE7FF" stroke-width="1.00"/><path d="M 1020.000,259.808 L 1005.000,285.788 L 975.000,285.788 L 960.000,259.808 L 975.000,233.827 L 1005.000,233.827 Z" fill="none" stroke="#9BE7FF" stroke-width="1.00"/><path d="M 1020.000,311.769 L 1005.000,337.750 L 975.000,337.750 L 960.000,311.769 L 975.000,285.788 L 1005.000,285.788 Z" fill="none" stroke="#9BE7FF" stroke-width="1.00"/><path d="M 1020.000,363.731 L 1005.000,389.711 L 975.000,389.711 L 960.000,363.731 L 975.000,337.750 L 1005.000,337.750 Z" fill="none" stroke="#9BE7FF" stroke-width="1.00"/><path d="M 1020.000,415.692 L 1005.000,441.673 L 975.000,441.673 L 960.000,415.692 L 975.000,389.711 L 1005.000,389.711 Z" fill="none" stroke="#9BE7FF" stroke-width="1.00"/><path d="M 1020.000,467.654 L 1005.000,493.634 L 975.000,493.634 L 960.000,467.654 L 975.000,441.673 L 1005.000,441.673 Z" fill="none" stroke="#9BE7FF" stroke-width="1.00"/><path d="M 1020.000,519.615 L 1005.000,545.596 L 975.000,545.596 L 960.000,519.615 L 975.000,493.634 L 1005.000,493.634 Z" fill="none" stroke="#9BE7FF" stroke-width="1.00"/><path d="M 1020.000,571.577 L 1005.000,597.558 L 975.000,597.558 L 960.000,571.577 L 975.000,545.596 L 1005.000,545.596 Z" fill="none" stroke="#9BE7FF" stroke-width="1.00"/><path d="M 1020.000,623.538 L 1005.000,649.519 L 975.000,649.519 L 960.000,623.538 L 975.000,597.558 L 1005.000,597.558 Z" fill="none" stroke="#9BE7FF" stroke-width="1.00"/><path d="M 1020.000,675.500 L 1005.000,701.481 L 975.000,701.481 L 960.000,675.500 L 975.000,649.519 L 1005.000,649.519 Z" fill="none" stroke="#9BE7FF" stroke-width="1.00"/><path d="M 1020.000,727.461 L 1005.000,753.442 L 975.000,753.442 L 960.000,727.461 L 975.000,701.481 L 1005.000,701.481 Z" fill="none" stroke="#9BE7FF" stroke-width="1.00"/><path d="M 1020.000,779.423 L 1005.000,805.404 L 975.000,805.404 L 960.000,779.423 L 975.000,753.442 L 1005.000,753.442 Z" fill="none" stroke="#9BE7FF" stroke-width="1.00"/><path d="M 1020.000,831.384 L 1005.000,857.365 L 975.000,857.365 L 960.000,831.384 L 975.000,805.404 L 1005.000,805.404 Z" fill="none" stroke="#9BE7FF" stroke-width="1.00"/><path d="M 1020.000,883.346 L 1005.000,909.327 L 975.000,909.327 L 960.000,883.346 L 975.000,857.365 L 1005.000,857.365 Z" fill="none" stroke="#9BE7FF" stroke-width="1.00"/><path d="M 1020.000,935.307 L 1005.000,961.288 L 975.000,961.288 L 960.000,935.307 L 975.000,909.327 L 1005.000,909.327 Z" fill="none" stroke="#9BE7FF" stroke-width="1.00"/><path d="M 1020.000,987.269 L 1005.000,1013.250 L 975.000,1013.250 L 960.000,987.269 L 975.000,961.288 L 1005.000,961.288 Z" fill="none" stroke="#9BE7FF" stroke-width="1.00"/><path d="M 1020.000,1039.230 L 1005.000,1065.211 L 975.000,1065.211 L 960.000,1039.230 L 975.000,1013.250 L 1005.000,1013.250 Z" fill="none" stroke="#9BE7FF" stroke-width="1.00"/><path d="M 1065.000,-25.981 L 1050.000,0.000 L 1020.000,0.000 L 1005.000,-25.981 L 1020.000,-51.962 L 1050.000,-51.962 Z" fill="none" stroke="#9BE7FF" stroke-width="1.00"/><path d="M 1065.000,25.981 L 1050.000,51.962 L 1020.000,51.962 L 1005.000,25.981 L 1020.000,0.000 L 1050.000,0.000 Z" fill="none" stroke="#9BE7FF" stroke-width="1.00"/><path d="M 1065.000,77.942 L 1050.000,103.923 L 1020.000,103.923 L 1005.000,77.942 L 1020.000,51.962 L 1050.000,51.962 Z" fill="none" stroke="#9BE7FF" stroke-width="1.00"/><path d="M 1065.000,129.904 L 1050.000,155.885 L 1020.000,155.885 L 1005.000,129.904 L 1020.000,103.923 L 1050.000,103.923 Z" fill="none" stroke="#9BE7FF" stroke-width="1.00"/><path d="M 1065.000,181.865 L 1050.000,207.846 L 1020.000,207.846 L 1005.000,181.865 L 1020.000,155.885 L 1050.000,155.885 Z" fill="none" stroke="#9BE7FF" stroke-width="1.00"/><path d="M 1065.000,233.827 L 1050.000,259.808 L 1020.000,259.808 L 1005.000,233.827 L 1020.000,207.846 L 1050.000,207.846 Z" fill="none" stroke="#9BE7FF" stroke-width="1.00"/><path d="M 1065.000,285.788 L 1050.000,311.769 L 1020.000,311.769 L 1005.000,285.788 L 1020.000,259.808 L 1050.000,259.808 Z" fill="none" stroke="#9BE7FF" stroke-width="1.00"/><path d="M 1065.000,337.750 L 1050.000,363.731 L 1020.000,363.731 L 1005.000,337.750 L 1020.000,311.769 L 1050.000,311.769 Z" fill="none" stroke="#9BE7FF" stroke-width="1.00"/><path d="M 1065.000,389.711 L 1050.000,415.692 L 1020.000,415.692 L 1005.000,389.711 L 1020.000,363.731 L 1050.000,363.731 Z" fill="none" stroke="#9BE7FF" stroke-width="1.00"/><path d="M 1065.000,441.673 L 1050.000,467.654 L 1020.000,467.654 L 1005.000,441.673 L 1020.000,415.692 L 1050.000,415.692 Z" fill="none" stroke="#9BE7FF" stroke-width="1.00"/><path d="M 1065.000,493.634 L 1050.000,519.615 L 1020.000,519.615 L 1005.000,493.634 L 1020.000,467.654 L 1050.000,467.654 Z" fill="none" stroke="#9BE7FF" stroke-width="1.00"/><path d="M 1065.000,545.596 L 1050.000,571.577 L 1020.000,571.577 L 1005.000,545.596 L 1020.000,519.615 L 1050.000,519.615 Z" fill="none" stroke="#9BE7FF" stroke-width="1.00"/><path d="M 1065.000,597.558 L 1050.000,623.538 L 1020.000,623.538 L 1005.000,597.558 L 1020.000,571.577 L 1050.000,571.577 Z" fill="none" stroke="#9BE7FF" stroke-width="1.00"/><path d="M 1065.000,649.519 L 1050.000,675.500 L 1020.000,675.500 L 1005.000,649.519 L 1020.000,623.538 L 1050.000,623.538 Z" fill="none" stroke="#9BE7FF" stroke-width="1.00"/><path d="M 1065.000,701.481 L 1050.000,727.461 L 1020.000,727.461 L 1005.000,701.481 L 1020.000,675.500 L 1050.000,675.500 Z" fill="none" stroke="#9BE7FF" stroke-width="1.00"/><path d="M 1065.000,753.442 L 1050.000,779.423 L 1020.000,779.423 L 1005.000,753.442 L 1020.000,727.461 L 1050.000,727.461 Z" fill="none" stroke="#9BE7FF" stroke-width="1.00"/><path d="M 1065.000,805.404 L 1050.000,831.384 L 1020.000,831.384 L 1005.000,805.404 L 1020.000,779.423 L 1050.000,779.423 Z" fill="none" stroke="#9BE7FF" stroke-width="1.00"/><path d="M 1065.000,857.365 L 1050.000,883.346 L 1020.000,883.346 L 1005.000,857.365 L 1020.000,831.384 L 1050.000,831.384 Z" fill="none" stroke="#9BE7FF" stroke-width="1.00"/><path d="M 1065.000,909.327 L 1050.000,935.307 L 1020.000,935.307 L 1005.000,909.327 L 1020.000,883.346 L 1050.000,883.346 Z" fill="none" stroke="#9BE7FF" stroke-width="1.00"/><path d="M 1065.000,961.288 L 1050.000,987.269 L 1020.000,987.269 L 1005.000,961.288 L 1020.000,935.307 L 1050.000,935.307 Z" fill="none" stroke="#9BE7FF" stroke-width="1.00"/><path d="M 1065.000,1013.250 L 1050.000,1039.230 L 1020.000,1039.230 L 1005.000,1013.250 L 1020.000,987.269 L 1050.000,987.269 Z" fill="none" stroke="#9BE7FF" stroke-width="1.00"/><path d="M 1065.000,1065.211 L 1050.000,1091.192 L 1020.000,1091.192 L 1005.000,1065.211 L 1020.000,1039.230 L 1050.000,1039.230 Z" fill="none" stroke="#9BE7FF" stroke-width="1.00"/></g><path d="M 796.000,500.000 L 648.000,756.344 L 352.000,756.344 L 204.000,500.000 L 352.000,243.656 L 648.000,243.656 Z" fill="none" stroke="#6E8894" stroke-width="2.40" opacity="0.22"/><line x1="650.00" y1="500.00" x2="706.00" y2="500.00" stroke="#6E8894" stroke-width="4.20" opacity="0.40"/><line x1="500.00" y1="650.00" x2="500.00" y2="706.00" stroke="#6E8894" stroke-width="4.20" opacity="0.40"/><line x1="350.00" y1="500.00" x2="294.00" y2="500.00" stroke="#6E8894" stroke-width="4.20" opacity="0.40"/><line x1="500.00" y1="350.00" x2="500.00" y2="294.00" stroke="#6E8894" stroke-width="4.20" opacity="0.40"/><path d="M 888.000,500.000 L 694.000,836.018 L 306.000,836.018 L 112.000,500.000 L 306.000,163.982 L 694.000,163.982 Z" fill="none" stroke="#9BE7FF" stroke-width="33.00" opacity="0.93" stroke-linejoin="miter"/><path d="M 306.000,163.982 L 694.000,163.982" fill="none" stroke="#FFB03A" stroke-width="33.00" stroke-linecap="butt"/><circle cx="500.0" cy="500.0" r="92.00" fill="none" stroke="#9BE7FF" stroke-width="11.00" opacity="0.88"/><circle cx="500.0" cy="500.0" r="30.00" fill="#9BE7FF" opacity="0.94"/></svg>